<svg width="183" height="80" viewBox="0 0 183 80" fill="none" xmlns="http://www.w3.org/2000/svg">
<g clip-path="url(#clip0)">
<path fill-rule="evenodd" clip-rule="evenodd" d="M79.1158 30.7954C79.1158 28.9172 77.7026 27.4681 75.872 27.4681C74.0471 27.4681 72.6283 28.9172 72.6283 30.7954C72.6283 32.6737 74.0471 34.1223 75.872 34.1223C77.7031 34.1223 79.1158 32.6737 79.1158 30.7954ZM70.7341 30.7954C70.7341 27.877 72.9507 25.6743 75.872 25.6743C78.792 25.6743 81.01 27.8775 81.01 30.7954C81.01 33.7138 78.792 35.9161 75.872 35.9161C72.9507 35.9161 70.7341 33.7138 70.7341 30.7954ZM89.7196 28.9887C89.7196 28.0729 89.1492 27.4354 88.0594 27.4354H86.387C86.303 27.4354 86.2224 27.4697 86.163 27.5306C86.1036 27.5916 86.0702 27.6742 86.0702 27.7604V30.1983C86.0702 30.3774 86.2124 30.5223 86.387 30.5223H88.0594C89.1497 30.5223 89.7196 29.9444 89.7196 28.9887ZM91.5506 29.0079C91.5506 30.8022 90.2956 32.1601 88.3448 32.1601H86.387C86.303 32.1601 86.2224 32.1943 86.163 32.2553C86.1036 32.3162 86.0702 32.3989 86.0702 32.485V35.462C86.0703 35.5046 86.0621 35.5468 86.0463 35.5861C86.0304 35.6255 86.0072 35.6613 85.9778 35.6914C85.9485 35.7215 85.9137 35.7455 85.8753 35.7618C85.837 35.7781 85.7959 35.7865 85.7543 35.7865H84.4989C84.4573 35.7865 84.4161 35.7782 84.3777 35.7619C84.3392 35.7456 84.3043 35.7217 84.2749 35.6916C84.2455 35.6615 84.2221 35.6257 84.2062 35.5863C84.1903 35.5469 84.1821 35.5046 84.1821 35.462V26.1289C84.1821 25.9498 84.3239 25.8044 84.4989 25.8044H88.3448C90.2961 25.8044 91.5502 27.2406 91.5502 29.0084L91.5506 29.0079ZM96.4972 27.8516V29.6257C96.4972 29.8047 96.638 29.9506 96.8135 29.9506H99.6328C99.8078 29.9506 99.9496 30.0956 99.9496 30.2756V31.3287C99.9496 31.4149 99.9162 31.4976 99.8568 31.5585C99.7974 31.6194 99.7168 31.6537 99.6328 31.6537H96.8135C96.7719 31.6536 96.7308 31.6619 96.6924 31.6782C96.654 31.6944 96.6191 31.7183 96.5897 31.7484C96.5603 31.7785 96.5369 31.8142 96.521 31.8535C96.505 31.8929 96.4968 31.9351 96.4967 31.9777V33.7393C96.4967 33.9188 96.638 34.0642 96.8135 34.0642H100.102C100.277 34.0642 100.418 34.2097 100.418 34.3882V35.4615C100.418 35.5476 100.385 35.6302 100.326 35.6911C100.267 35.7521 100.186 35.7864 100.102 35.7865H94.9249C94.8833 35.7865 94.8422 35.7781 94.8037 35.7617C94.7653 35.7454 94.7304 35.7215 94.7011 35.6913C94.6717 35.6611 94.6484 35.6253 94.6325 35.5858C94.6167 35.5464 94.6085 35.5042 94.6086 35.4615V26.1289C94.6086 25.9498 94.7504 25.8049 94.9249 25.8049H100.102C100.276 25.8049 100.418 25.9498 100.418 26.1289V27.2017C100.418 27.2878 100.385 27.3704 100.325 27.4313C100.266 27.4922 100.186 27.5265 100.102 27.5266H96.813C96.729 27.5266 96.6484 27.5609 96.589 27.6218C96.5296 27.6828 96.4962 27.7654 96.4962 27.8516H96.4972ZM113.018 26.1289V35.4615C113.018 35.5477 112.985 35.6304 112.925 35.6913C112.866 35.7522 112.785 35.7865 112.701 35.7865H111.384C111.336 35.7865 111.289 35.7755 111.246 35.7542C111.203 35.7329 111.165 35.702 111.136 35.6636L106.246 29.3641C106.058 29.1241 105.682 29.259 105.682 29.5666V35.4615C105.682 35.5477 105.648 35.6304 105.589 35.6913C105.53 35.7522 105.449 35.7865 105.365 35.7865H104.136C104.052 35.7864 103.971 35.7521 103.912 35.6911C103.853 35.6302 103.819 35.5476 103.819 35.4615V26.1289C103.819 25.9498 103.961 25.8044 104.136 25.8044H105.441C105.537 25.8044 105.628 25.8495 105.688 25.9263L110.579 32.2033C110.766 32.4433 111.143 32.3079 111.143 32.0017V26.1284C111.143 25.9494 111.284 25.8039 111.459 25.8039H112.701C112.876 25.8039 113.018 25.9494 113.018 26.1284V26.1289ZM81.0095 47.9871C81.0095 50.918 78.799 53.1207 75.872 53.1207C72.9507 53.1207 70.7341 50.9175 70.7341 48.0001C70.7341 45.0817 72.9507 42.8794 75.872 42.8794C77.5519 42.8794 79.0006 43.6119 79.9215 44.7826C79.951 44.8197 79.9723 44.8629 79.9837 44.9093C79.9952 44.9557 79.9966 45.0041 79.9878 45.0511C79.9791 45.0981 79.9604 45.1425 79.9331 45.1813C79.9058 45.2201 79.8706 45.2523 79.8298 45.2756L78.7442 45.8905C78.6818 45.927 78.6091 45.9405 78.5382 45.9287C78.4673 45.9169 78.4024 45.8805 78.3544 45.8257C77.7648 45.1201 76.8818 44.6727 75.865 44.6727C74.0471 44.6727 72.6283 46.0959 72.6283 48.0452C72.6283 49.8721 73.8889 51.3274 75.8973 51.3274C77.3259 51.3274 78.3877 50.594 78.8528 49.431C78.9365 49.2198 78.7779 48.9879 78.5556 48.9879H76.7775C76.7359 48.9879 76.6947 48.9795 76.6563 48.9632C76.6179 48.9468 76.583 48.9229 76.5537 48.8927C76.5243 48.8625 76.501 48.8267 76.4851 48.7873C76.4692 48.7479 76.4611 48.7056 76.4612 48.663V47.714C76.4612 47.5345 76.603 47.389 76.7775 47.389H80.6824C80.8504 47.389 80.9866 47.522 80.9987 47.6934C81.0057 47.7874 81.0095 47.8854 81.0095 47.9871ZM91.7785 48.0001C91.7785 46.1218 90.3654 44.6732 88.5348 44.6732C86.7103 44.6732 85.2911 46.1218 85.2911 48.0001C85.2911 49.8783 86.7103 51.327 88.5348 51.327C90.3654 51.327 91.7785 49.8783 91.7785 48.0001ZM83.3969 48.0001C83.3969 45.0817 85.614 42.879 88.5348 42.879C91.4547 42.879 93.6727 45.0822 93.6727 48.0001C93.6727 50.9185 91.4547 53.1212 88.5348 53.1212C85.614 53.1212 83.3969 50.918 83.3969 48.0001ZM104.482 43.4487L101.034 52.7814C101.012 52.8429 100.971 52.8959 100.918 52.9334C100.866 52.9709 100.803 52.991 100.739 52.9911H99.2243C99.1601 52.9911 99.0974 52.971 99.0445 52.9335C98.9917 52.8961 98.9513 52.843 98.9285 52.7814L95.4869 43.4487C95.4688 43.3996 95.4626 43.3466 95.4688 43.2945C95.4751 43.2423 95.4935 43.1925 95.5227 43.1493C95.5518 43.106 95.5907 43.0707 95.6361 43.0463C95.6814 43.0218 95.7319 43.0091 95.7831 43.009H97.098C97.2313 43.009 97.3507 43.0954 97.3956 43.2246L99.6838 49.802C99.7839 50.09 100.18 50.09 100.279 49.8025L102.573 43.2246C102.595 43.1615 102.636 43.1069 102.689 43.0683C102.742 43.0297 102.806 43.009 102.871 43.009H104.186C104.407 43.009 104.561 43.2361 104.482 43.4487ZM109.376 45.0558V46.8308C109.376 47.0098 109.517 47.1553 109.692 47.1553H112.512C112.686 47.1553 112.829 47.3002 112.829 47.4798V48.5334C112.828 48.6195 112.795 48.702 112.736 48.7628C112.676 48.8237 112.596 48.8578 112.512 48.8578H109.692C109.608 48.858 109.528 48.8923 109.468 48.9532C109.409 49.0141 109.376 49.0967 109.376 49.1828V50.9444C109.376 51.1234 109.517 51.2684 109.692 51.2684H112.981C113.156 51.2684 113.297 51.4143 113.297 51.5934V52.6662C113.297 52.7088 113.289 52.7511 113.273 52.7905C113.257 52.8299 113.234 52.8657 113.204 52.8959C113.175 52.9261 113.14 52.95 113.102 52.9664C113.063 52.9827 113.022 52.9911 112.981 52.9911H107.803C107.762 52.9911 107.721 52.9826 107.682 52.9662C107.644 52.9499 107.609 52.9259 107.58 52.8957C107.551 52.8656 107.527 52.8298 107.511 52.7904C107.496 52.751 107.487 52.7088 107.488 52.6662V43.334C107.488 43.1545 107.629 43.009 107.803 43.009H112.981C113.156 43.009 113.297 43.1545 113.297 43.334V44.4068C113.297 44.4494 113.289 44.4916 113.273 44.531C113.257 44.5704 113.234 44.6062 113.204 44.6364C113.175 44.6665 113.14 44.6904 113.102 44.7067C113.063 44.723 113.022 44.7313 112.981 44.7313H109.692C109.608 44.7314 109.528 44.7656 109.468 44.8265C109.409 44.8873 109.376 44.9697 109.376 45.0558ZM118.586 46.8956C118.586 47.0746 118.727 47.2206 118.902 47.2206H120.373C121.278 47.2206 121.767 46.7454 121.767 45.9466C121.767 45.1604 121.278 44.6468 120.372 44.6468H118.902C118.818 44.6468 118.738 44.681 118.678 44.742C118.619 44.8029 118.586 44.8856 118.586 44.9718V46.8956ZM119.982 48.7729H118.902C118.818 48.7729 118.737 48.8071 118.678 48.8681C118.618 48.929 118.585 49.0117 118.585 49.0978V52.6662C118.585 52.7088 118.577 52.7511 118.561 52.7905C118.545 52.8299 118.522 52.8657 118.493 52.8959C118.463 52.9261 118.428 52.95 118.39 52.9664C118.351 52.9827 118.31 52.9911 118.269 52.9911H117.014C116.972 52.9911 116.931 52.9827 116.893 52.9664C116.854 52.95 116.819 52.9261 116.79 52.8959C116.76 52.8657 116.737 52.8299 116.721 52.7905C116.705 52.7511 116.697 52.7088 116.697 52.6662V43.334C116.697 43.1545 116.839 43.009 117.014 43.009H120.498C122.5 43.009 123.596 44.3348 123.596 45.9658C123.596 47.0578 123.05 47.9338 122.208 48.4033C122.171 48.4239 122.138 48.4519 122.112 48.4858C122.086 48.5197 122.066 48.5588 122.055 48.6006C122.044 48.6423 122.041 48.686 122.046 48.729C122.052 48.772 122.066 48.8134 122.088 48.8506L124.195 52.501C124.223 52.5503 124.238 52.6064 124.238 52.6636C124.239 52.7208 124.224 52.7771 124.197 52.8267C124.169 52.8764 124.129 52.9177 124.081 52.9465C124.033 52.9753 123.978 52.9905 123.922 52.9906H122.612C122.555 52.9908 122.5 52.9753 122.451 52.9457C122.402 52.9162 122.362 52.8736 122.335 52.8226L120.259 48.9418C120.232 48.8908 120.192 48.8481 120.143 48.8184C120.094 48.7887 120.039 48.773 119.982 48.7729H119.982ZM136.52 43.334V52.6666C136.519 52.7527 136.486 52.8351 136.427 52.8959C136.367 52.9568 136.287 52.991 136.203 52.9911H134.886C134.838 52.9912 134.791 52.9803 134.748 52.9591C134.705 52.9379 134.667 52.907 134.638 52.8687L129.748 46.5687C129.56 46.3287 129.184 46.4641 129.184 46.7713V52.6666C129.184 52.7527 129.15 52.8353 129.091 52.8961C129.031 52.9569 128.951 52.9911 128.867 52.9911H127.637C127.553 52.991 127.473 52.9567 127.414 52.8959C127.355 52.8351 127.321 52.7526 127.321 52.6666V43.334C127.321 43.1545 127.463 43.009 127.637 43.009H128.943C129.039 43.009 129.13 43.0542 129.19 43.1314L134.081 49.4079C134.267 49.6479 134.645 49.5126 134.645 49.2054V43.3345C134.645 43.155 134.785 43.0095 134.961 43.0095H136.203C136.378 43.0095 136.52 43.155 136.52 43.3345L136.52 43.334ZM150.994 43.334V52.6666C150.994 52.7527 150.961 52.8352 150.901 52.8961C150.842 52.9569 150.762 52.9911 150.678 52.9911H149.423C149.339 52.9911 149.258 52.9569 149.199 52.8961C149.14 52.8353 149.106 52.7527 149.106 52.6666V47.2532C149.106 46.8975 148.628 46.801 148.496 47.1303L146.241 52.7895C146.217 52.849 146.176 52.8999 146.124 52.9358C146.072 52.9717 146.011 52.9909 145.948 52.9911H145.392C145.329 52.991 145.267 52.9717 145.215 52.9357C145.163 52.8996 145.122 52.8484 145.098 52.7886L142.854 47.1274C142.724 46.7977 142.245 46.8932 142.245 47.2498V52.6666C142.245 52.7527 142.212 52.8353 142.152 52.8961C142.093 52.9569 142.012 52.9911 141.928 52.9911H140.674C140.59 52.9911 140.509 52.9569 140.45 52.8961C140.391 52.8353 140.357 52.7527 140.357 52.6666V43.334C140.357 43.1545 140.499 43.009 140.674 43.009H142.706C142.833 43.009 142.949 43.0882 142.998 43.2097L145.375 49.1156C145.398 49.1751 145.439 49.2259 145.491 49.2618C145.543 49.2976 145.604 49.3168 145.667 49.3169C145.73 49.317 145.791 49.298 145.843 49.2624C145.895 49.2267 145.936 49.1759 145.96 49.1166L148.36 43.2087C148.384 43.1496 148.425 43.0991 148.477 43.0636C148.529 43.0281 148.59 43.0091 148.652 43.009H150.678C150.852 43.009 150.994 43.1545 150.994 43.334ZM156.726 45.0558V46.8308C156.726 47.0098 156.868 47.1553 157.043 47.1553H159.863C160.038 47.1553 160.179 47.3002 160.179 47.4798V48.5334C160.179 48.6194 160.146 48.702 160.087 48.7628C160.027 48.8237 159.947 48.8578 159.863 48.8578H157.043C156.959 48.8578 156.879 48.8921 156.819 48.953C156.76 49.014 156.726 49.0966 156.726 49.1828V50.9444C156.726 51.1234 156.868 51.2684 157.043 51.2684H160.332C160.506 51.2684 160.648 51.4143 160.648 51.5934V52.6662C160.648 52.7088 160.64 52.751 160.624 52.7904C160.608 52.8298 160.585 52.8656 160.555 52.8957C160.526 52.9259 160.491 52.9499 160.453 52.9662C160.414 52.9826 160.373 52.9911 160.332 52.9911H155.155C155.113 52.9911 155.072 52.9827 155.033 52.9664C154.995 52.95 154.96 52.9261 154.931 52.8959C154.901 52.8657 154.878 52.8299 154.862 52.7905C154.846 52.7511 154.838 52.7088 154.838 52.6662V43.334C154.838 43.1545 154.98 43.009 155.155 43.009H160.332C160.506 43.009 160.648 43.1545 160.648 43.334V44.4068C160.648 44.4494 160.64 44.4916 160.624 44.5309C160.608 44.5703 160.585 44.6061 160.555 44.6362C160.526 44.6663 160.491 44.6903 160.453 44.7066C160.414 44.7229 160.373 44.7313 160.332 44.7313H157.043C156.959 44.7313 156.879 44.7654 156.819 44.8263C156.76 44.8871 156.726 44.9697 156.726 45.0558ZM173.248 43.334V52.6666C173.248 52.7093 173.239 52.7516 173.223 52.791C173.207 52.8304 173.184 52.8661 173.155 52.8963C173.125 52.9264 173.09 52.9503 173.052 52.9666C173.013 52.9828 172.972 52.9912 172.93 52.9911H171.613C171.566 52.9912 171.519 52.9802 171.476 52.959C171.433 52.9378 171.395 52.9069 171.366 52.8687L166.475 46.5687C166.289 46.3287 165.911 46.4641 165.911 46.7713V52.6666C165.911 52.7527 165.878 52.8351 165.819 52.8959C165.759 52.9568 165.679 52.991 165.595 52.9911H164.364C164.281 52.991 164.2 52.9567 164.141 52.8959C164.082 52.8351 164.049 52.7526 164.049 52.6666V43.334C164.049 43.1545 164.19 43.009 164.365 43.009H165.67C165.766 43.009 165.857 43.0542 165.917 43.1314L170.808 49.4079C170.995 49.6479 171.372 49.5126 171.372 49.2054V43.3345C171.372 43.155 171.513 43.0095 171.688 43.0095H172.93C173.105 43.0095 173.247 43.155 173.247 43.3345" fill="#EEEEEE"/>
<mask id="mask0" mask-type="alpha" maskUnits="userSpaceOnUse" x="176" y="43" width="8" height="10">
<path d="M176.173 43.0088H183.065V52.9909H176.173V43.0088Z" fill="white"/>
</mask>
<g mask="url(#mask0)">
<path fill-rule="evenodd" clip-rule="evenodd" d="M182.749 44.731H180.879C180.838 44.731 180.796 44.7394 180.758 44.7558C180.72 44.7721 180.685 44.7961 180.655 44.8262C180.626 44.8564 180.603 44.8922 180.587 44.9317C180.571 44.9711 180.563 45.0133 180.563 45.056V52.6664C180.563 52.7524 180.529 52.8349 180.47 52.8957C180.411 52.9565 180.33 52.9907 180.246 52.9909H178.998C178.914 52.9907 178.833 52.9565 178.774 52.8957C178.715 52.8349 178.681 52.7524 178.681 52.6664V45.056C178.681 45.0133 178.673 44.9711 178.657 44.9317C178.641 44.8922 178.618 44.8564 178.589 44.8262C178.559 44.7961 178.524 44.7721 178.486 44.7558C178.448 44.7394 178.406 44.731 178.365 44.731H176.489C176.406 44.731 176.325 44.6969 176.266 44.6362C176.206 44.5755 176.173 44.493 176.173 44.407V43.3337C176.173 43.1542 176.314 43.0088 176.489 43.0088H182.749C182.924 43.0088 183.066 43.1542 183.066 43.3337V44.4065C183.066 44.4926 183.032 44.5752 182.973 44.636C182.913 44.6969 182.833 44.731 182.749 44.731Z" fill="#EEEEEE"/>
</g>
<path fill-rule="evenodd" clip-rule="evenodd" d="M76.9421 63.3984C76.9421 62.4825 76.3721 61.8451 75.2823 61.8451H73.6099C73.5259 61.8451 73.4453 61.8793 73.3859 61.9403C73.3265 62.0012 73.2931 62.0839 73.2931 62.1701V64.608C73.2931 64.787 73.4349 64.932 73.6099 64.932H75.2823C76.3726 64.932 76.9426 64.3541 76.9426 63.3984H76.9421ZM78.7736 63.4185C78.7736 65.2118 77.5195 66.5697 75.5673 66.5697H73.6099C73.5259 66.5697 73.4453 66.604 73.3859 66.6649C73.3265 66.7259 73.2931 66.8085 73.2931 66.8947V69.8717C73.2932 69.9143 73.2851 69.9565 73.2692 69.9959C73.2533 70.0353 73.23 70.0711 73.2006 70.1012C73.1712 70.1314 73.1363 70.1553 73.0979 70.1716C73.0595 70.1879 73.0184 70.1962 72.9768 70.1961H71.7218C71.6802 70.1962 71.6391 70.1879 71.6006 70.1716C71.5622 70.1553 71.5273 70.1314 71.4978 70.1013C71.4684 70.0711 71.4451 70.0353 71.4292 69.9959C71.4132 69.9565 71.405 69.9143 71.405 69.8717V60.5385C71.405 60.3595 71.5463 60.2141 71.7218 60.2141H75.5673C77.5191 60.2141 78.7736 61.6507 78.7736 63.4185ZM83.7196 64.1006C83.7196 64.2797 83.8614 64.4256 84.0364 64.4256H85.5057C86.4117 64.4256 86.9002 63.9504 86.9002 63.1512C86.9002 62.3649 86.4117 61.8518 85.5057 61.8518H84.0364C83.9949 61.8518 83.9537 61.8601 83.9152 61.8764C83.8768 61.8927 83.8419 61.9166 83.8125 61.9467C83.783 61.9768 83.7597 62.0126 83.7438 62.052C83.7278 62.0914 83.7196 62.1336 83.7196 62.1763V64.1011V64.1006ZM85.1159 65.9784H84.0364C83.9525 65.9784 83.872 66.0126 83.8126 66.0734C83.7532 66.1342 83.7198 66.2168 83.7196 66.3029V69.8712C83.7197 69.9139 83.7115 69.9562 83.6956 69.9956C83.6798 70.0351 83.6564 70.0709 83.627 70.1011C83.5976 70.1313 83.5626 70.1552 83.5241 70.1715C83.4857 70.1878 83.4445 70.1962 83.4028 70.1961H82.1478C82.1063 70.1961 82.0651 70.1877 82.0267 70.1714C81.9883 70.1551 81.9534 70.1311 81.924 70.1009C81.8946 70.0708 81.8713 70.0349 81.8555 69.9955C81.8396 69.9561 81.8315 69.9138 81.8315 69.8712V60.5385C81.8315 60.3595 81.9728 60.2145 82.1478 60.2145H85.6326C87.6344 60.2145 88.7307 61.5398 88.7307 63.1709C88.7307 64.2624 88.1842 65.1393 87.3424 65.6078C87.3053 65.6285 87.2726 65.6566 87.2463 65.6905C87.22 65.7245 87.2007 65.7635 87.1894 65.8052C87.1782 65.847 87.1752 65.8906 87.1807 65.9336C87.1863 65.9765 87.2002 66.0179 87.2217 66.0552L89.3283 69.7061C89.3567 69.7553 89.3719 69.8114 89.3723 69.8686C89.3727 69.9258 89.3585 69.9821 89.3309 70.0318C89.3033 70.0815 89.2633 70.1228 89.2151 70.1516C89.1669 70.1804 89.1122 70.1956 89.0564 70.1957H87.7462C87.6895 70.1957 87.6339 70.1802 87.585 70.1506C87.5362 70.1211 87.4961 70.0786 87.4687 70.0277L85.3934 66.1469C85.3661 66.0959 85.326 66.0533 85.2772 66.0237C85.2283 65.9941 85.1727 65.9784 85.1159 65.9784ZM99.9055 65.2051C99.9055 63.3269 98.4923 61.8782 96.6617 61.8782C94.8373 61.8782 93.418 63.3269 93.418 65.2051C93.418 67.0833 94.8373 68.5325 96.6617 68.5325C98.4923 68.5325 99.9055 67.0833 99.9055 65.2051ZM91.5238 65.2051C91.5238 62.2867 93.7409 60.0845 96.6617 60.0845C99.5817 60.0845 101.8 62.2867 101.8 65.2051C101.8 68.1235 99.5817 70.3262 96.6617 70.3262C93.7409 70.3262 91.5238 68.123 91.5238 65.2051ZM108.223 68.4739C110.288 68.4739 111.288 67.3171 111.288 65.2051C111.288 63.0931 110.288 61.9368 108.223 61.9368H107.17C107.086 61.9368 107.005 61.971 106.946 62.0318C106.887 62.0927 106.853 62.1752 106.853 62.2613V68.1489C106.853 68.3285 106.995 68.4739 107.17 68.4739H108.223ZM104.972 60.5385C104.972 60.3595 105.114 60.2145 105.289 60.2145H108.304C111.536 60.2145 113.245 62.1825 113.245 65.2051C113.245 68.2272 111.536 70.1961 108.304 70.1961H105.289C105.247 70.1961 105.206 70.1877 105.167 70.1714C105.129 70.1551 105.094 70.1311 105.065 70.1009C105.035 70.0708 105.012 70.0349 104.996 69.9955C104.98 69.9561 104.972 69.9138 104.972 69.8712V60.5385ZM116.28 66.7387V60.539C116.28 60.359 116.421 60.2141 116.596 60.2141H117.851C118.026 60.2141 118.168 60.359 118.168 60.539V66.4397C118.168 68.0318 119.061 68.6107 120.233 68.6107C121.411 68.6107 122.304 68.0318 122.304 66.4397V60.539C122.304 60.359 122.446 60.2141 122.621 60.2141H123.883C124.057 60.2141 124.199 60.359 124.199 60.539V66.7387C124.199 69.1238 122.488 70.3257 120.233 70.3257C117.991 70.3257 116.279 69.1238 116.279 66.7387H116.28ZM127.175 65.2051C127.175 62.2867 129.385 60.0845 132.313 60.0845C133.628 60.0845 134.881 60.5856 135.783 61.4021C135.817 61.432 135.844 61.4689 135.863 61.5103C135.882 61.5517 135.892 61.5967 135.893 61.6423C135.894 61.688 135.885 61.7334 135.868 61.7755C135.851 61.8176 135.825 61.8556 135.793 61.8869L134.923 62.723C134.866 62.7785 134.79 62.8098 134.712 62.8107C134.633 62.8116 134.556 62.782 134.498 62.7278C133.924 62.1917 133.141 61.8782 132.313 61.8782C130.481 61.8782 129.069 63.3206 129.069 65.2051C129.069 67.0896 130.481 68.5325 132.312 68.5325C133.141 68.5325 133.924 68.2185 134.498 67.6824C134.556 67.628 134.633 67.5984 134.712 67.5992C134.791 67.6001 134.866 67.6315 134.924 67.6872L135.793 68.5238C135.825 68.5551 135.851 68.5931 135.868 68.6352C135.885 68.6773 135.894 68.7227 135.893 68.7684C135.892 68.814 135.882 68.859 135.863 68.9004C135.844 68.9418 135.817 68.9787 135.783 69.0086C134.881 69.8246 133.628 70.3262 132.312 70.3262C129.385 70.3262 127.175 68.123 127.175 65.2051ZM144.633 61.9363H142.764C142.722 61.9363 142.681 61.9447 142.643 61.961C142.604 61.9774 142.57 62.0013 142.54 62.0315C142.511 62.0617 142.487 62.0975 142.472 62.1369C142.456 62.1764 142.448 62.2186 142.448 62.2613V69.8717C142.448 69.9576 142.414 70.04 142.355 70.1008C142.296 70.1615 142.215 70.1957 142.131 70.1957H140.882C140.841 70.1957 140.8 70.1874 140.761 70.1711C140.723 70.1549 140.688 70.131 140.659 70.101C140.629 70.0709 140.606 70.0351 140.59 69.9958C140.574 69.9565 140.566 69.9143 140.566 69.8717V62.2613C140.566 62.2186 140.558 62.1764 140.542 62.137C140.526 62.0976 140.503 62.0617 140.473 62.0315C140.444 62.0013 140.409 61.9774 140.371 61.9611C140.332 61.9447 140.291 61.9363 140.25 61.9363H138.373C138.29 61.9362 138.209 61.9019 138.15 61.8411C138.091 61.7803 138.057 61.6978 138.057 61.6118V60.539C138.057 60.359 138.199 60.2141 138.373 60.2141H144.633C144.808 60.2141 144.95 60.359 144.95 60.539V61.6118C144.95 61.6979 144.917 61.7805 144.857 61.8413C144.798 61.9021 144.717 61.9363 144.633 61.9363ZM147.238 68.5037L147.923 67.6262C147.951 67.5911 147.985 67.5622 148.023 67.5414C148.062 67.5206 148.105 67.5084 148.148 67.5054C148.192 67.5025 148.236 67.5089 148.277 67.5244C148.318 67.5398 148.355 67.5639 148.387 67.595C149.04 68.2425 149.942 68.6817 150.734 68.6817C151.494 68.6817 152.045 68.2795 152.045 67.5705C152.045 66.6801 151.177 66.3485 150.068 65.8488C148.795 65.2766 147.452 64.6267 147.452 62.8651C147.452 61.0977 148.795 60.084 150.454 60.084C151.553 60.084 152.586 60.5049 153.435 61.2009C153.565 61.3075 153.584 61.5033 153.485 61.6411L152.872 62.4945C152.847 62.5297 152.815 62.5594 152.778 62.5816C152.742 62.6039 152.701 62.6183 152.659 62.6241C152.617 62.6298 152.574 62.6267 152.533 62.615C152.493 62.6033 152.454 62.5832 152.421 62.556C151.767 61.9997 151.029 61.7285 150.41 61.7285C149.796 61.7285 149.308 62.0472 149.308 62.6707C149.308 63.4829 150.144 63.8011 151.266 64.2955C152.546 64.8739 153.933 65.5886 153.933 67.4472C153.933 69.3576 152.463 70.3195 150.727 70.3195C149.475 70.3195 148.191 69.804 147.279 68.9525C147.217 68.897 147.179 68.8197 147.172 68.7363C147.164 68.6528 147.188 68.5696 147.238 68.5037Z" fill="#EEEEEE"/>
<mask id="mask1" mask-type="alpha" maskUnits="userSpaceOnUse" x="0" y="24" width="17" height="48">
<path d="M0 24.314H16.7221V71.688H0V24.314Z" fill="white"/>
</mask>
<g mask="url(#mask1)">
<path fill-rule="evenodd" clip-rule="evenodd" d="M16.5616 66.9121C16.7143 66.6425 16.7607 66.3232 16.6911 66.0198C16.6216 65.7163 16.4415 65.4516 16.1877 65.2801C10.7002 61.5917 7.07329 55.2327 7.07329 48.0001C7.07329 40.7684 10.7002 34.4093 16.1877 30.721C16.4414 30.5494 16.6214 30.2847 16.691 29.9813C16.7605 29.6778 16.7142 29.3586 16.5616 29.089L14.2191 24.9274C14.1373 24.7829 14.0277 24.6569 13.897 24.5571C13.7664 24.4573 13.6173 24.3858 13.4588 24.3469C13.3004 24.308 13.1359 24.3025 12.9753 24.3307C12.8148 24.359 12.6615 24.4204 12.5247 24.5113C4.99332 29.4735 0 38.1365 0 48.0005C0 57.8645 4.99285 66.5271 12.5247 71.4898C12.6614 71.5806 12.8147 71.642 12.9753 71.6702C13.1358 71.6985 13.3003 71.693 13.4587 71.6542C13.6171 71.6153 13.7662 71.5438 13.8969 71.4441C14.0276 71.3444 14.1372 71.2186 14.2191 71.0741L16.5616 66.9121Z" fill="#276EF1"/>
</g>
<path fill-rule="evenodd" clip-rule="evenodd" d="M40.1916 24.9266L37.8496 29.0891C37.6971 29.3585 37.6508 29.6775 37.7202 29.9808C37.7897 30.284 37.9695 30.5486 38.223 30.7202C43.7104 34.4085 47.3369 40.768 47.3369 48.0002C47.3369 55.2323 43.7104 61.5914 38.223 65.2802C37.9695 65.4518 37.7897 65.7163 37.7202 66.0196C37.6508 66.3228 37.6971 66.6418 37.8496 66.9112L40.1916 71.0733C40.2734 71.2178 40.383 71.3437 40.5137 71.4434C40.6444 71.5432 40.7935 71.6147 40.9519 71.6536C41.1103 71.6925 41.2748 71.698 41.4353 71.6698C41.5959 71.6416 41.7492 71.5802 41.886 71.4894C49.4183 66.5267 54.4102 57.8642 54.4102 48.0002C54.4102 38.1362 49.4173 29.4736 41.886 24.5104C41.7492 24.4197 41.5959 24.3583 41.4354 24.3302C41.2748 24.302 41.1104 24.3076 40.952 24.3465C40.7936 24.3855 40.6446 24.457 40.514 24.5568C40.3833 24.6566 40.2738 24.7826 40.192 24.927" fill="#276EF1"/>
</g>
<path opacity="0.5" d="M4.116 12.076C4.448 12.076 4.734 12.038 4.974 11.962C5.214 11.886 5.41 11.78 5.562 11.644C5.718 11.504 5.832 11.34 5.904 11.152C5.976 10.96 6.012 10.75 6.012 10.522C6.012 10.078 5.854 9.728 5.538 9.472C5.222 9.212 4.748 9.082 4.116 9.082H2.256V12.076H4.116ZM2.256 5.32V8.254H3.792C4.12 8.254 4.404 8.218 4.644 8.146C4.888 8.074 5.088 7.974 5.244 7.846C5.404 7.718 5.522 7.564 5.598 7.384C5.674 7.2 5.712 7 5.712 6.784C5.712 6.276 5.56 5.906 5.256 5.674C4.952 5.438 4.48 5.32 3.84 5.32H2.256ZM3.84 4.402C4.368 4.402 4.822 4.454 5.202 4.558C5.586 4.662 5.9 4.81 6.144 5.002C6.392 5.194 6.574 5.43 6.69 5.71C6.806 5.986 6.864 6.298 6.864 6.646C6.864 6.858 6.83 7.062 6.762 7.258C6.698 7.45 6.6 7.63 6.468 7.798C6.336 7.966 6.168 8.118 5.964 8.254C5.764 8.386 5.528 8.494 5.256 8.578C5.888 8.698 6.362 8.924 6.678 9.256C6.998 9.584 7.158 10.016 7.158 10.552C7.158 10.916 7.09 11.248 6.954 11.548C6.822 11.848 6.626 12.106 6.366 12.322C6.11 12.538 5.794 12.706 5.418 12.826C5.042 12.942 4.614 13 4.134 13H1.098V4.402H3.84ZM13.4729 6.922V13H12.8369C12.6849 13 12.5889 12.926 12.5489 12.778L12.4649 12.124C12.2009 12.416 11.9049 12.652 11.5769 12.832C11.2489 13.008 10.8729 13.096 10.4489 13.096C10.1169 13.096 9.82291 13.042 9.56691 12.934C9.31491 12.822 9.10291 12.666 8.93091 12.466C8.75891 12.266 8.62891 12.024 8.54091 11.74C8.45691 11.456 8.41491 11.142 8.41491 10.798V6.922H9.48291V10.798C9.48291 11.258 9.58691 11.614 9.79491 11.866C10.0069 12.118 10.3289 12.244 10.7609 12.244C11.0769 12.244 11.3709 12.17 11.6429 12.022C11.9189 11.87 12.1729 11.662 12.4049 11.398V6.922H13.4729ZM16.2943 6.922V13H15.2263V6.922H16.2943ZM16.5223 5.014C16.5223 5.118 16.5003 5.216 16.4563 5.308C16.4163 5.396 16.3603 5.476 16.2883 5.548C16.2203 5.616 16.1383 5.67 16.0423 5.71C15.9503 5.75 15.8523 5.77 15.7483 5.77C15.6443 5.77 15.5463 5.75 15.4543 5.71C15.3663 5.67 15.2883 5.616 15.2203 5.548C15.1523 5.476 15.0983 5.396 15.0583 5.308C15.0183 5.216 14.9983 5.118 14.9983 5.014C14.9983 4.91 15.0183 4.812 15.0583 4.72C15.0983 4.624 15.1523 4.542 15.2203 4.474C15.2883 4.402 15.3663 4.346 15.4543 4.306C15.5463 4.266 15.6443 4.246 15.7483 4.246C15.8523 4.246 15.9503 4.266 16.0423 4.306C16.1383 4.346 16.2203 4.402 16.2883 4.474C16.3603 4.542 16.4163 4.624 16.4563 4.72C16.5003 4.812 16.5223 4.91 16.5223 5.014ZM19.1531 4.162V13H18.0851V4.162H19.1531ZM22.7511 13.096C22.2711 13.096 21.9011 12.962 21.6411 12.694C21.3851 12.426 21.2571 12.04 21.2571 11.536V7.816H20.5251C20.4611 7.816 20.4071 7.798 20.3631 7.762C20.3191 7.722 20.2971 7.662 20.2971 7.582V7.156L21.2931 7.03L21.5391 5.152C21.5511 5.092 21.5771 5.044 21.6171 5.008C21.6611 4.968 21.7171 4.948 21.7851 4.948H22.3251V7.042H24.0831V7.816H22.3251V11.464C22.3251 11.72 22.3871 11.91 22.5111 12.034C22.6351 12.158 22.7951 12.22 22.9911 12.22C23.1031 12.22 23.1991 12.206 23.2791 12.178C23.3631 12.146 23.4351 12.112 23.4951 12.076C23.5551 12.04 23.6051 12.008 23.6451 11.98C23.6891 11.948 23.7271 11.932 23.7591 11.932C23.8151 11.932 23.8651 11.966 23.9091 12.034L24.2211 12.544C24.0371 12.716 23.8151 12.852 23.5551 12.952C23.2951 13.048 23.0271 13.096 22.7511 13.096ZM29.3302 11.536C29.5262 11.8 29.7402 11.986 29.9722 12.094C30.2082 12.202 30.4662 12.256 30.7462 12.256C31.3182 12.256 31.7562 12.054 32.0602 11.65C32.3642 11.246 32.5162 10.644 32.5162 9.844C32.5162 9.1 32.3802 8.554 32.1082 8.206C31.8402 7.854 31.4562 7.678 30.9562 7.678C30.6082 7.678 30.3042 7.758 30.0442 7.918C29.7882 8.078 29.5502 8.304 29.3302 8.596V11.536ZM29.3302 7.798C29.5862 7.502 29.8742 7.266 30.1942 7.09C30.5182 6.914 30.8902 6.826 31.3102 6.826C31.6662 6.826 31.9862 6.894 32.2702 7.03C32.5582 7.166 32.8022 7.364 33.0022 7.624C33.2022 7.88 33.3542 8.192 33.4582 8.56C33.5662 8.928 33.6202 9.342 33.6202 9.802C33.6202 10.294 33.5602 10.742 33.4402 11.146C33.3202 11.55 33.1462 11.896 32.9182 12.184C32.6942 12.468 32.4202 12.69 32.0962 12.85C31.7722 13.006 31.4082 13.084 31.0042 13.084C30.6042 13.084 30.2662 13.01 29.9902 12.862C29.7182 12.71 29.4802 12.496 29.2762 12.22L29.2222 12.772C29.1902 12.924 29.0982 13 28.9462 13H28.2562V4.162H29.3302V7.798ZM40.0627 6.922L36.6727 14.794C36.6367 14.874 36.5907 14.938 36.5347 14.986C36.4827 15.034 36.4007 15.058 36.2887 15.058H35.4967L36.6067 12.646L34.0987 6.922H35.0227C35.1147 6.922 35.1867 6.946 35.2387 6.994C35.2947 7.038 35.3327 7.088 35.3527 7.144L36.9787 10.972C37.0427 11.14 37.0967 11.316 37.1407 11.5C37.1967 11.312 37.2567 11.134 37.3207 10.966L38.8987 7.144C38.9227 7.08 38.9627 7.028 39.0187 6.988C39.0787 6.944 39.1447 6.922 39.2167 6.922H40.0627Z" fill="#EEEEEE"/>
<defs>
<clipPath id="clip0">
<rect width="183" height="48" fill="white" transform="translate(0 24)"/>
</clipPath>
</defs>
</svg>
