<?xml version="1.0" encoding="utf-8"?>
<!-- Generator: Adobe Illustrator 22.1.0, SVG Export Plug-In . SVG Version: 6.00 Build 0)  -->
<svg version="1.1" id="Layer_1" xmlns="http://www.w3.org/2000/svg" xmlns:xlink="http://www.w3.org/1999/xlink" x="0px" y="0px"
	 width="100px" height="80px" viewBox="0 0 100 80" style="enable-background:new 0 0 100 80;" xml:space="preserve">
<style type="text/css">
	.st0{fill:#FFFFFF;}
	.st1{fill:#11817A;}
	.st2{opacity:0.3;}
</style>
<g>
	<path class="st0" d="M100,13.9c0-3.7-1.5-7.1-4.1-9.8C93.3,1.5,89.7,0,86.1,0C80,0,71.3,3.5,50,3.5S19.5,0,13.9,0
		c-3.7,0-7.2,1.4-9.8,4.1C1.4,6.7,0,10.2,0,13.9C0,17.1,3,28.3,3,39S0,61,0,64.1c0,3.7,1.4,7.2,4.1,9.8c2.6,2.6,6.1,4.1,9.8,4.1
		c5.6,0,14.7-3.5,36.1-3.5S80,78,86.1,78c7.7,0,13.9-6.2,13.9-13.9c0-3.2-3-14.2-3-25.1S100,17.1,100,13.9z"/>
</g>
<path class="st1" d="M50,70.6c14.1,0,30,4.5,36.1,4.5s11-4.9,11-11S93,46.4,93,39s4.1-19,4.1-25.1s-5.1-11-11-11S64.1,7.4,50,7.4
	S20,2.9,13.9,2.9s-11,4.9-11,11C2.9,19.9,7,31.5,7,39S2.9,58.1,2.9,64.1s4.9,11,11,11S35.9,70.6,50,70.6"/>
<path class="st0" d="M21.9,39.4c0,0-1.1-0.1-2-0.1v6.9c0,0.3,0.1,0.4,0.3,0.5h-1.8c0.2-0.1,0.3-0.3,0.3-0.5v-6.9c-0.9,0-2,0.1-2,0.1
	c-0.3,0-0.5,0.3-0.6,0.5v-1h6.3v1C22.4,39.7,22.2,39.4,21.9,39.4"/>
<path class="st0" d="M29.4,39.2c-1.8,0-3.1,1.3-3.1,3.4c0,2.5,1.7,3.7,3.1,3.7c1.8,0,3-1.3,3-3.4C32.5,40.7,31.2,39.2,29.4,39.2
	 M33.8,42.9c-0.1,2.7-2.5,4-4.5,4c-2.3,0-4.4-1.8-4.3-4.2c0.1-1.9,1.7-4,4.6-3.9C31.6,38.8,33.9,40.2,33.8,42.9z"/>
<path class="st0" d="M39.3,38.8c-0.2,0.1-0.4,0.3-0.4,0.5v4.9c0,0.8,0.3,2,2,2c1.6,0,2.1-1,2.1-2v-4.9c0-0.3-0.1-0.4-0.3-0.5H44
	c-0.2,0.1-0.3,0.3-0.3,0.5v4.9c0,1.9-1.3,2.6-2.8,2.6c-1.3,0-3-0.6-3-2.6v-4.9c0-0.3-0.2-0.4-0.4-0.5H39.3"/>
<path class="st0" d="M50.2,39.3c-0.5,0-0.9,0-0.9,0v3.2c0,0,0.4,0,0.7,0c0.9,0,1.8-0.5,1.8-1.7C51.8,40.3,51.5,39.3,50.2,39.3
	 M53,40.8c0,1.3-1.2,1.9-1.9,2c0.6,0.1,1,0.6,1.2,0.9c0,0,1.3,2.1,1.8,2.7c0.3,0.3,0.8,0.5,0.8,0.5h-1.2c-0.5,0-0.8-0.3-1-0.5
	c-0.6-0.9-1-1.6-1.5-2.2c-0.3-0.5-0.6-1-1.2-1c-0.2,0-0.7,0-0.7,0v3.2c0,0.3,0.2,0.4,0.3,0.5h-1.8c0.2-0.1,0.3-0.3,0.3-0.5v-6.9
	c0-0.3-0.1-0.4-0.3-0.5h2.3C52.5,38.8,53,40.1,53,40.8z"/>
<path class="st0" d="M60,38.8c-0.2,0.1-0.3,0.3-0.3,0.5v6.9c0,0.3,0.1,0.4,0.3,0.5h-1.8c0.2-0.1,0.3-0.3,0.3-0.5v-6.9
	c0-0.3-0.1-0.4-0.3-0.5H60"/>
<path class="st0" d="M67.3,42c1.1,0.6,2.3,0.9,2.3,2.5c0,1.5-1.4,2.4-2.6,2.4c-1,0-1.8-0.4-2.2-0.7v-1.7c0.3,0.8,0.9,1.9,2.2,1.9
	c1.3,0,1.6-1,1.6-1.6c0-1.1-0.9-1.3-2-1.9c-1.2-0.6-1.7-1.2-1.7-2.1c0-1.4,1.3-2.1,2.5-2.1c0.4,0,1.2,0.1,1.7,0.4l0.1,1.5
	c-0.1-0.6-0.8-1.5-1.9-1.5c-1,0-1.3,0.7-1.3,1.2C65.7,41.2,66.2,41.5,67.3,42"/>
<path class="st0" d="M78.5,44.8l2.6-6h1.5c-0.2,0.1-0.3,0.3-0.3,0.5v6.9c0,0.3,0.1,0.4,0.3,0.5h-1.8c0.2-0.1,0.3-0.3,0.3-0.5v-6
	c0-0.1,0-0.2,0-0.2L81,40.3L78,47l-2.9-6.5L75,40.2c0,0,0,0.2,0,0.3v5.8c0,0.3,0.1,0.4,0.3,0.5h-1.2c0.2-0.1,0.3-0.3,0.3-0.5v-6.9
	c0-0.2-0.2-0.4-0.4-0.5h1.6L78.5,44.8"/>
<path class="st0" d="M29.3,56.5c0,1.7-1.7,1.8-2.5,1.8c-0.3,0-0.6,0-0.6,0c0-1.4,0-3.4,0-3.4s0.6,0,1,0
	C28.2,54.9,29.3,55.2,29.3,56.5 M27.1,50.9h-2.3c0.2,0.1,0.3,0.3,0.3,0.5v6.9c0,0.3-0.1,0.4-0.3,0.5h2.6c2.6,0,3.2-1.3,3.2-2.2
	c0-1.9-2.4-2.1-2.4-2.1s1.6-0.5,1.6-1.8C29.8,51.2,27.9,50.9,27.1,50.9z M28.7,52.8c0,1.5-1.4,1.6-1.9,1.6c-0.3,0-0.5,0-0.5,0
	c0-0.9,0-2.9,0-2.9s0.3,0,0.8,0C27.8,51.4,28.7,51.8,28.7,52.8z"/>
<path class="st0" d="M38.3,51.3c-1.8,0-3.1,1.3-3.1,3.4c0,2.5,1.7,3.7,3.1,3.7c1.8,0,3-1.3,3-3.4C41.4,52.8,40.1,51.3,38.3,51.3
	 M42.7,55c-0.1,2.7-2.5,4-4.5,4c-2.3,0-4.4-1.8-4.3-4.2c0.1-1.9,1.7-4,4.6-3.9C40.5,50.9,42.8,52.3,42.7,55z"/>
<path class="st0" d="M47.3,56H50c-0.6-1.5-1.4-3.3-1.4-3.3S47.8,54.7,47.3,56 M49,50.8c0,0,3.1,7.1,3.3,7.5c0.1,0.2,0.2,0.4,0.6,0.6
	h-2.2c0.3-0.1,0.4-0.3,0.3-0.6c-0.1-0.1-0.4-0.9-0.8-1.8h-3.1c-0.4,0.9-0.7,1.6-0.8,1.8c-0.1,0.3-0.1,0.5,0.3,0.6h-1.5
	c0.3-0.2,0.4-0.3,0.6-0.6C45.9,57.8,49,50.8,49,50.8z"/>
<path class="st0" d="M59,51.4c-0.5,0-0.9,0-0.9,0v3.2c0,0,0.4,0,0.7,0c0.9,0,1.8-0.5,1.8-1.7C60.6,52.4,60.3,51.4,59,51.4
	 M61.9,52.9c0,1.3-1.2,1.9-1.9,2c0.6,0.1,1,0.6,1.2,0.9c0,0,1.3,2.1,1.8,2.7c0.3,0.3,0.8,0.5,0.8,0.5h-1.2c-0.5,0-0.8-0.3-1-0.5
	c-0.6-0.9-1-1.6-1.5-2.2c-0.3-0.5-0.6-1-1.2-1c-0.2,0-0.7,0-0.7,0v3.2c0,0.3,0.2,0.4,0.3,0.5h-1.8c0.2-0.1,0.3-0.3,0.3-0.5v-6.9
	c0-0.3-0.1-0.4-0.3-0.5H59C61.3,50.9,61.9,52.2,61.9,52.9z"/>
<path class="st0" d="M67.3,50.9c0.2,0.1,0.3,0.3,0.3,0.5v6.9c0,0.3-0.1,0.4-0.3,0.5h2.8c3.4,0,4.8-2.2,4.8-4.1c0-1-0.6-3.8-4.6-3.8
	L67.3,50.9 M73.6,54.8c0,1.7-0.8,3.6-3.5,3.6c-0.4,0-0.9,0-1.4,0v-6.9c0.3,0,1.1,0,1.5,0C72.8,51.4,73.6,53.3,73.6,54.8z"/>
<path class="st0" d="M40.8,27.5c-1.1,1.6-1.5,2.4-2.1,3.6c-0.3,0.6-0.9,2.2-0.5,3.5c0.7,0.2,1.7-0.2,2.6-1.5
	C41.5,31.9,41.4,29.6,40.8,27.5 M80,21c-0.5,0.4-1.1,1.1-1.3,1.9c-0.1,0.4-0.2,1-0.1,1.6c1.2-0.6,2.3-1.5,2.6-2.8
	c0.1-0.3,0.1-0.8-0.4-0.8C80.4,20.9,80.2,20.9,80,21z M79.7,20c0.9-0.5,2-0.4,2.4-0.1c0.8,0.7,1,0.9,0.9,2.3
	c-0.1,0.6-1.3,2.3-4.3,3.2c0,0.5,0.5,1,1.2,1.1c1.6,0.2,3.4-0.6,3.7-0.7c0.3-0.1,0.2,0.1,0.1,0.2c-1.2,1.1-2.9,1.5-4.2,1.3
	c-1.9-0.3-2.1-0.9-2.5-1.5c0,0-0.1-0.1-0.3-0.1c-0.2,0-0.8,0-1-0.1c-0.8-0.1-1.1-0.5-1.2-0.8c0-0.1-0.1-0.3,0.2-0.1
	c0.4,0.3,0.7,0.4,1,0.4c0.4,0.1,0.8,0,1-0.1c-0.1-0.8-0.1-1.7,0.2-2.3C77.2,22,78,20.9,79.7,20z M27.5,17.6c0.1,0,0.2,0,0.4,0
	c0.2,0,0.3,0.2,0.4,0.3c0.1,0.1,0.1,0.4,0,0.6s-0.2,0.4-0.4,0.5c-0.3,0.2-0.7,0.6-0.7,0.7c-0.1,0.1-0.1,0.3-0.3,0.2
	c-0.3,0-0.3-0.3-0.5-0.5c-0.2-0.1-0.1-0.3,0-0.5C26.5,18.6,27.3,17.7,27.5,17.6z M56.7,17.5c0.2-0.2-0.2,0.8,0.1,1.8
	c0,0.1-0.2,0.3-0.2,0.3c-0.7,0.8-1.2,1.6-1.5,2.7c-0.1,0.3-0.1,0.4,0.1,0.2c0.2-0.3,0.6-0.7,0.9-1c1.9-2.1,3.1-2.5,3.9-1.9
	c1.1,0.9,0.3,2.5,0,3.2c-0.1,0.1,0,0.1,0.2,0s1.5-0.8,2.3-1.4c0.7-0.5,1.6-1.1,1.9-1.4s0.3,0.5,0.2,0.9c-0.1,0.5-0.1,0.7-0.3,0.8
	c-0.5,0.5-1.6,1.4-1.8,2.2c-0.2,1.3,0.4,1.6,0.9,1.6c1.1,0.1,2.2-1.2,2.3-2.1c0-0.1-0.2-0.2-0.5-0.4c-0.7-0.5-0.8-1.2-0.3-1.8
	c0.2-0.2,0.8-0.7,1.3-0.2c0.4,0.3,0.8,0.7,0.8,1s0,0.8,0.2,0.8c0.8,0,2.3-0.6,3-1c1.5-0.8,2.6-1.5,3.3-1.9c0.4-0.2,0.3,0.1,0.2,0.3
	c-0.1,0.4-0.4,0.6-0.6,0.9c-0.1,0.1-0.2,0.4,0.1,0.2c0.9-0.3,2.6-1.1,3.7-1.1c0.5,0,0.4,0.1,0.2,0.2c-0.5,0.2-0.7,1.2-1.1,1.4
	c-0.4,0.2-0.7,0.1-1.1,0.1c-0.5,0.1-1.2,0.3-1.6,0.5c-1.3,0.8-1.9,1.6-2.5,2.5c-0.6,1-1.6,3.2-1.7,3.4c-0.2,0.6-0.3,0.5-0.4,0.4
	c-0.6-0.5,0.1-2.5,0.7-4c0.4-0.8,0.8-1.9,1.4-2.8c0.2-0.4,0.1-0.2-0.1-0.1s-1.6,1-2.1,1.3c-0.6,0.2-1.3,0.5-1.7,0.5
	c-0.3,0-0.3,0.5-0.7,1.2c-0.8,1.5-2.1,2.7-3.2,2.7c-1,0-2-0.7-2.3-2c-0.2-1,0.4-1.8,0.8-2.7c0.2-0.4,0.1-0.3,0-0.3
	c-1.8,0.4-3.9,2.7-6.5,2.7c-0.4,0-0.4-0.1-0.2-0.2c0.8-0.2,3.2-1.2,4-3c0.2-0.5,0-1.2-0.5-1.2c-0.5,0.1-1.3,0.1-2.5,1.3
	C55,23.3,54.3,24.7,54,26c-0.2,1-0.7,2.7-0.9,4.1c-0.1,0.6-0.2,2.6-0.2,2.8s-0.2,0.2-0.3,0c-0.4-0.9-0.5-1.5-0.6-2.7
	c0-0.3,0-1.8,0.2-2.6c0.3-1.3,0.2-2.1,0.2-2.1c0-0.1-0.1-0.1-0.2,0.1c-0.1,0.1-0.9,1.2-1.7,1.3c-0.3,0.1-0.7,0-1-0.4
	c-0.3-0.5-0.4-1.8-0.4-1.9c0-0.3-0.1-0.1-0.2-0.1c-0.1,0.2-0.5,0.7-0.6,0.9c-0.3,0.4-0.9,1.2-1.8,1.4c-0.2,0.1-1,0-1.5-0.9
	c-0.5-0.8-0.2-1.9,0.2-2.6c0.1-0.1,0.1-0.3-0.1-0.2c-0.3,0.2-1,0.7-1.6,1.2c-1,0.8-1.8,1.6-1.8,1.7c0,0.2,0.3,0.8,0.5,1.4
	c1.1,2.8,1.6,5.6-1,7.4c-0.8,0.5-1.7,0.8-2.8,0.6c-0.7-0.1-1.1-0.9-1.1-1.3c0-1,0.1-2,0.2-2.4c0.6-1.5,1.4-2.6,1.9-3.5
	c0.5-0.8,1-1.3,1.1-1.6c0-0.3-0.2-0.9-0.3-1.2c-0.4-1.2-0.4-2.1-0.4-2.4s-0.2-0.2-0.3,0c-0.2,0.4-0.6,1.3-1,2s-1.1,1.3-2.1,1.2
	c-0.7,0-0.9-0.8-0.9-1c0-0.5,0-1.3-0.1-1.4c0-0.4-0.2-0.7-0.5-0.7c-0.4,0-0.5,0.1-0.8,0.3c-0.4,0.4-0.8,1-1.2,1.7
	c-0.5,0.8-0.8,1.5-1,1.8c-0.3,0.6-0.3,1-0.7,1c-0.4,0-0.5-0.9-0.5-1.3c0-1.1,0.3-2,0.5-3c0.1-0.3,0.1-0.3,0-0.5
	c-0.2-0.1-0.2,0-0.4,0.2c-0.3,0.4-0.7,1.2-0.7,1.3c-0.4,0.8-0.8,1.5-1.5,1.9c-0.4,0.2-0.7,0.2-1.2,0.2c-0.2,0-0.4-0.3-0.6-0.5
	c-0.6-1.1-0.8-2.1-1-2.6c-0.1-0.3-0.3-0.3-0.4-0.2c-0.5,0.2-0.7,0.7-1.1,1c-0.7,0.4-1.6,0.6-2.5,0.4s-1.3-0.6-1.4-0.9
	s0.2-0.1,0.2-0.1c0.8,0.5,1.2,0.5,1.4,0.5c0.4,0,1.4-0.2,2-0.9c0.3-0.4,0.8-1.6,1.4-2s1-0.5,1.4,0.2c0.2,0.3,0.2,0.6,0.2,0.8
	c0,0.2,0.2,0.6,0.2,0.8c0,0.7-0.1,1,0,1.5c0,0.5,0,0.8,0.4,1.2c0.2,0.3,0.4,0.1,0.7-0.1c0.4-0.1,1.1-1.1,1.8-2.5
	c0.2-0.4,0.7-1.3,1.3-2.4c0.1-0.2,0.3-0.4,0.4-0.5c0.2-0.1,0.5-0.1,0.6,0.1c0.3,0.3,0.5,0.7,0.4,1.2c0,0.2-0.1,1.1,0,1.6
	c0,0.2,0.1,0.2,0.2,0.1c0.4-0.4,1-1.1,1.2-1.4c0.2-0.2,0.7-0.5,1.1-0.6c0.4,0,0.7,0.1,1,0.4c0.6,0.6,0.4,1.3,0.7,2.4
	c0.1,0.2,0.2,0.2,0.3,0.2c0.2,0,0.6-0.2,0.9-0.6c0.4-0.5,0.7-1.1,0.8-1.4c0.2-0.5,0.5-1.1,0.6-1.2s0.4-1.5,0.7-1.9
	c0.4-0.7,0.8-1.2,1.5-1.3c1-0.2,1.7,0.3,2.1,0.7c0.3,0.4,0.3,1.3-0.1,2c-0.2,0.3-0.5,0.5-0.7,0.7s-0.3,0.3-0.5,0.5s-0.3,0-0.2-0.3
	c0.1-0.2,0.4-0.5,0.7-0.8s0.3-0.7,0.3-0.9c0-0.3,0.1-0.6-0.7-0.5c-0.4,0-1,0.3-1.6,1.5c-0.5,1-0.4,2.4-0.3,3.4
	c0.2,0.2,0.2,0.8,0.4,1.1c0,0.1,0.1,0.1,0.2,0c0.4-0.3,1.4-1.3,2-1.9c1.5-1.4,2.4-2.2,3.7-2.9c0.7-0.4,1.2-0.6,2-0.9
	c0.6-0.2,1.2-0.5,2.4-0.5c0.2,0,0.1,0.3,0,0.4s-0.4,0.3-0.4,0.6c0,0.2-0.1,0.5-0.5,0.5c-0.5,0-1.1-0.1-1.3,0
	c-0.8,0.3-2.2,0.9-2.8,1.5c-0.7,0.8-0.7,1.3-0.5,2s0.9,0.6,1.3,0.5c0.6-0.5,1.1-1.2,1.4-1.6l0.9-1.2c0.1-0.2,0.3-0.3,0.3-0.1
	c0.1,0.4,0.1,0.7,0.1,1.9c0,0.3,0.1,0.6,0.1,0.9c0,0.4,0.8,0.8,1.5,0.2c0.5-0.4,0.9-1.2,1.2-1.7C54.3,21.5,55.1,18.9,56.7,17.5z
	 M21.7,13c0.2,0,0.4,0,0.8,0c0.2,0,0.5,0.4,0.5,0.5c0.1,1.5-1.2,2.6-1.6,3c-0.3,0.3-0.7,0.8-0.8,0.9c-0.3,0.5-0.4,0.2-0.3-0.2
	c0.1-0.3,0.3-0.5,0.6-0.9c0.3-0.4,0.8-1,0.9-1.3c0.2-0.5,0.3-0.7,0.4-1.1c-0.1-0.1-0.1-0.1-0.4-0.1s-0.5,0.1-1.5,1.2
	c-0.7,0.8-1.5,2.4-1.3,4.3c0.1,1.3,0.2,2.2,0.8,3.7c0.7,1.6,1.4,2.9,1.3,4.3c-0.1,1.9-1.8,3.3-2.5,3.6c-0.7,0.4-1.1,0.2-1.3,0
	c-0.4-0.3-0.8-0.6-0.9-1.3c-0.1-0.5,0.2-1.2,0.4-1.8c0.3-0.7,0.6-1.1,1-1.4c0.3-0.2,0.2,0.1,0.2,0.3c0,0.1-0.5,1.2-0.6,1.9
	c-0.1,0.7-0.1,0.6,0,1.1c0.3,0.1,0.7,0.1,0.9,0c0.3-0.2,0.9-1.1,1-1.7c0.2-1.2,0.1-1.7-0.1-2.7c-0.4-1.8-1.5-3.5-1.9-5
	c-0.3-1.1-0.1-2.2,0.2-3.2c0.2-0.7,0.5-1.2,1.3-2C19.5,14.2,20.4,13.2,21.7,13z"/>
<g class="st2">
	<path d="M223.8,15.9c0-3.7-1.5-7.1-4.1-9.8c-2.6-2.6-6.2-4.1-9.8-4.1c-6.1,0-14.8,3.5-36.1,3.5S143.3,2,137.7,2
		c-3.7,0-7.2,1.4-9.8,4.1c-2.7,2.6-4.1,6.1-4.1,9.8c0,3.2,3,14.4,3,25.1s-3,22-3,25.1c0,3.7,1.4,7.2,4.1,9.8
		c2.6,2.6,6.1,4.1,9.8,4.1c5.6,0,14.7-3.5,36.1-3.5s30,3.5,36.1,3.5c7.7,0,13.9-6.2,13.9-13.9c0-3.2-3-14.2-3-25.1
		S223.8,19.1,223.8,15.9z"/>
</g>
<g>
	<path class="st0" d="M223.8,13.9c0-3.7-1.5-7.1-4.1-9.8c-2.6-2.6-6.2-4.1-9.8-4.1c-6.1,0-14.8,3.5-36.1,3.5S143.3,0,137.7,0
		c-3.7,0-7.2,1.4-9.8,4.1c-2.7,2.6-4.1,6.1-4.1,9.8c0,3.2,3,14.4,3,25.1s-3,22-3,25.1c0,3.7,1.4,7.2,4.1,9.8
		c2.6,2.6,6.1,4.1,9.8,4.1c5.6,0,14.7-3.5,36.1-3.5s30,3.5,36.1,3.5c7.7,0,13.9-6.2,13.9-13.9c0-3.2-3-14.2-3-25.1
		S223.8,17.1,223.8,13.9z"/>
</g>
<path class="st1" d="M173.8,70.6c14.1,0,30,4.5,36.1,4.5c6.1,0,11-4.9,11-11s-4.1-17.7-4.1-25.1s4.1-19,4.1-25.1s-5.1-11-11-11
	c-5.9,0-22,4.5-36.1,4.5c-14.1,0-30-4.5-36.1-4.5c-6.1,0-11,4.9-11,11c0,6,4.1,17.6,4.1,25.1s-4.1,19.1-4.1,25.1s4.9,11,11,11
	S159.7,70.6,173.8,70.6"/>
<path class="st0" d="M145.7,39.4c0,0-1.1-0.1-2-0.1v6.9c0,0.3,0.1,0.4,0.3,0.5h-1.8c0.2-0.1,0.3-0.3,0.3-0.5v-6.9
	c-0.9,0-2,0.1-2,0.1c-0.3,0-0.5,0.3-0.6,0.5v-1h6.3v1C146.2,39.7,146,39.4,145.7,39.4"/>
<path class="st0" d="M153.2,39.2c-1.8,0-3.1,1.3-3.1,3.4c0,2.5,1.7,3.7,3.1,3.7c1.8,0,3-1.3,3-3.4C156.3,40.7,155,39.2,153.2,39.2
	 M157.6,42.9c-0.1,2.7-2.5,4-4.5,4c-2.3,0-4.4-1.8-4.3-4.2c0.1-1.9,1.7-4,4.6-3.9C155.4,38.8,157.7,40.2,157.6,42.9z"/>
<path class="st0" d="M163.1,38.8c-0.2,0.1-0.4,0.3-0.4,0.5v4.9c0,0.8,0.3,2,2,2c1.6,0,2.1-1,2.1-2v-4.9c0-0.3-0.1-0.4-0.3-0.5h1.3
	c-0.2,0.1-0.3,0.3-0.3,0.5v4.9c0,1.9-1.3,2.6-2.8,2.6c-1.3,0-3-0.6-3-2.6v-4.9c0-0.3-0.2-0.4-0.4-0.5H163.1"/>
<path class="st0" d="M174,39.3c-0.5,0-0.9,0-0.9,0v3.2c0,0,0.4,0,0.7,0c0.9,0,1.8-0.5,1.8-1.7C175.6,40.3,175.3,39.3,174,39.3
	 M176.8,40.8c0,1.3-1.2,1.9-1.9,2c0.6,0.1,1,0.6,1.2,0.9c0,0,1.3,2.1,1.8,2.7c0.3,0.3,0.8,0.5,0.8,0.5h-1.2c-0.5,0-0.8-0.3-1-0.5
	c-0.6-0.9-1-1.6-1.5-2.2c-0.3-0.5-0.6-1-1.2-1c-0.2,0-0.7,0-0.7,0v3.2c0,0.3,0.2,0.4,0.3,0.5h-1.8c0.2-0.1,0.3-0.3,0.3-0.5v-6.9
	c0-0.3-0.1-0.4-0.3-0.5h2.3C176.3,38.8,176.8,40.1,176.8,40.8z"/>
<path class="st0" d="M183.8,38.8c-0.2,0.1-0.3,0.3-0.3,0.5v6.9c0,0.3,0.1,0.4,0.3,0.5H182c0.2-0.1,0.3-0.3,0.3-0.5v-6.9
	c0-0.3-0.1-0.4-0.3-0.5H183.8"/>
<path class="st0" d="M191.1,42c1.1,0.6,2.3,0.9,2.3,2.5c0,1.5-1.4,2.4-2.6,2.4c-1,0-1.8-0.4-2.2-0.7v-1.7c0.3,0.8,0.9,1.9,2.2,1.9
	c1.3,0,1.6-1,1.6-1.6c0-1.1-0.9-1.3-2-1.9c-1.2-0.6-1.7-1.2-1.7-2.1c0-1.4,1.3-2.1,2.5-2.1c0.4,0,1.2,0.1,1.7,0.4l0.1,1.5
	c-0.1-0.6-0.8-1.5-1.9-1.5c-1,0-1.3,0.7-1.3,1.2C189.5,41.2,190,41.5,191.1,42"/>
<path class="st0" d="M202.3,44.8l2.6-6h1.5c-0.2,0.1-0.3,0.3-0.3,0.5v6.9c0,0.3,0.1,0.4,0.3,0.5h-1.8c0.2-0.1,0.3-0.3,0.3-0.5v-6
	c0-0.1,0-0.2,0-0.2l-0.1,0.3l-3,6.7l-2.9-6.5l-0.1-0.3c0,0,0,0.2,0,0.3v5.8c0,0.3,0.1,0.4,0.3,0.5h-1.2c0.2-0.1,0.3-0.3,0.3-0.5
	v-6.9c0-0.2-0.2-0.4-0.4-0.5h1.6L202.3,44.8"/>
<path class="st0" d="M153.1,56.5c0,1.7-1.7,1.8-2.5,1.8c-0.3,0-0.6,0-0.6,0c0-1.4,0-3.4,0-3.4s0.6,0,1,0
	C152,54.9,153.1,55.2,153.1,56.5 M150.9,50.9h-2.3c0.2,0.1,0.3,0.3,0.3,0.5v6.9c0,0.3-0.1,0.4-0.3,0.5h2.6c2.6,0,3.2-1.3,3.2-2.2
	c0-1.9-2.4-2.1-2.4-2.1s1.6-0.5,1.6-1.8C153.6,51.2,151.7,50.9,150.9,50.9z M152.5,52.8c0,1.5-1.4,1.6-1.9,1.6c-0.3,0-0.5,0-0.5,0
	c0-0.9,0-2.9,0-2.9s0.3,0,0.8,0C151.6,51.4,152.5,51.8,152.5,52.8z"/>
<path class="st0" d="M162.1,51.3c-1.8,0-3.1,1.3-3.1,3.4c0,2.5,1.7,3.7,3.1,3.7c1.8,0,3-1.3,3-3.4C165.2,52.8,163.9,51.3,162.1,51.3
	 M166.5,55c-0.1,2.7-2.5,4-4.5,4c-2.3,0-4.4-1.8-4.3-4.2c0.1-1.9,1.7-4,4.6-3.9C164.3,50.9,166.6,52.3,166.5,55z"/>
<path class="st0" d="M171.1,56h2.7c-0.6-1.5-1.4-3.3-1.4-3.3S171.6,54.7,171.1,56 M172.8,50.8c0,0,3.1,7.1,3.3,7.5
	c0.1,0.2,0.2,0.4,0.6,0.6h-2.2c0.3-0.1,0.4-0.3,0.3-0.6c-0.1-0.1-0.4-0.9-0.8-1.8h-3.1c-0.4,0.9-0.7,1.6-0.8,1.8
	c-0.1,0.3-0.1,0.5,0.3,0.6h-1.5c0.3-0.2,0.4-0.3,0.6-0.6C169.7,57.8,172.8,50.8,172.8,50.8z"/>
<path class="st0" d="M182.8,51.4c-0.5,0-0.9,0-0.9,0v3.2c0,0,0.4,0,0.7,0c0.9,0,1.8-0.5,1.8-1.7C184.4,52.4,184.1,51.4,182.8,51.4
	 M185.7,52.9c0,1.3-1.2,1.9-1.9,2c0.6,0.1,1,0.6,1.2,0.9c0,0,1.3,2.1,1.8,2.7c0.3,0.3,0.8,0.5,0.8,0.5h-1.2c-0.5,0-0.8-0.3-1-0.5
	c-0.6-0.9-1-1.6-1.5-2.2c-0.3-0.5-0.6-1-1.2-1c-0.2,0-0.7,0-0.7,0v3.2c0,0.3,0.2,0.4,0.3,0.5h-1.8c0.2-0.1,0.3-0.3,0.3-0.5v-6.9
	c0-0.3-0.1-0.4-0.3-0.5h2.3C185.1,50.9,185.7,52.2,185.7,52.9z"/>
<path class="st0" d="M191.1,50.9c0.2,0.1,0.3,0.3,0.3,0.5v6.9c0,0.3-0.1,0.4-0.3,0.5h2.8c3.4,0,4.8-2.2,4.8-4.1c0-1-0.6-3.8-4.6-3.8
	L191.1,50.9 M197.4,54.8c0,1.7-0.8,3.6-3.5,3.6c-0.4,0-0.9,0-1.4,0v-6.9c0.3,0,1.1,0,1.5,0C196.6,51.4,197.4,53.3,197.4,54.8z"/>
<path class="st0" d="M164.6,27.5c-1.1,1.6-1.5,2.4-2.1,3.6c-0.3,0.6-0.9,2.2-0.5,3.5c0.7,0.2,1.7-0.2,2.6-1.5
	C165.3,31.9,165.2,29.6,164.6,27.5 M203.8,21c-0.5,0.4-1.1,1.1-1.3,1.9c-0.1,0.4-0.2,1-0.1,1.6c1.2-0.6,2.3-1.5,2.6-2.8
	c0.1-0.3,0.1-0.8-0.4-0.8C204.2,20.9,204,20.9,203.8,21z M203.5,20c0.9-0.5,2-0.4,2.4-0.1c0.8,0.7,1,0.9,0.9,2.3
	c-0.1,0.6-1.3,2.3-4.3,3.2c0,0.5,0.5,1,1.2,1.1c1.6,0.2,3.4-0.6,3.7-0.7s0.2,0.1,0.1,0.2c-1.2,1.1-2.9,1.5-4.2,1.3
	c-1.9-0.3-2.1-0.9-2.5-1.5c0,0-0.1-0.1-0.3-0.1c-0.2,0-0.8,0-1-0.1c-0.8-0.1-1.1-0.5-1.2-0.8c0-0.1-0.1-0.3,0.2-0.1
	c0.4,0.3,0.7,0.4,1,0.4c0.4,0.1,0.8,0,1-0.1c-0.1-0.8-0.1-1.7,0.2-2.3C201,22,201.8,20.9,203.5,20z M151.3,17.6c0.1,0,0.2,0,0.4,0
	s0.3,0.2,0.4,0.3c0.1,0.1,0.1,0.4,0,0.6c-0.1,0.2-0.2,0.4-0.4,0.5c-0.3,0.2-0.7,0.6-0.7,0.7c-0.1,0.1-0.1,0.3-0.3,0.2
	c-0.3,0-0.3-0.3-0.5-0.5c-0.2-0.1-0.1-0.3,0-0.5C150.3,18.6,151.1,17.7,151.3,17.6z M180.5,17.5c0.2-0.2-0.2,0.8,0.1,1.8
	c0,0.1-0.2,0.3-0.2,0.3c-0.7,0.8-1.2,1.6-1.5,2.7c-0.1,0.3-0.1,0.4,0.1,0.2c0.2-0.3,0.6-0.7,0.9-1c1.9-2.1,3.1-2.5,3.9-1.9
	c1.1,0.9,0.3,2.5,0,3.2c-0.1,0.1,0,0.1,0.2,0s1.5-0.8,2.3-1.4c0.7-0.5,1.6-1.1,1.9-1.4s0.3,0.5,0.2,0.9c-0.1,0.5-0.1,0.7-0.3,0.8
	c-0.5,0.5-1.6,1.4-1.8,2.2c-0.2,1.3,0.4,1.6,0.9,1.6c1.1,0.1,2.2-1.2,2.3-2.1c0-0.1-0.2-0.2-0.5-0.4c-0.7-0.5-0.8-1.2-0.3-1.8
	c0.2-0.2,0.8-0.7,1.3-0.2c0.4,0.3,0.8,0.7,0.8,1s0,0.8,0.2,0.8c0.8,0,2.3-0.6,3-1c1.5-0.8,2.6-1.5,3.3-1.9c0.4-0.2,0.3,0.1,0.2,0.3
	c-0.1,0.4-0.4,0.6-0.6,0.9c-0.1,0.1-0.2,0.4,0.1,0.2c0.9-0.3,2.6-1.1,3.7-1.1c0.5,0,0.4,0.1,0.2,0.2c-0.5,0.2-0.7,1.2-1.1,1.4
	c-0.4,0.2-0.7,0.1-1.1,0.1c-0.5,0.1-1.2,0.3-1.6,0.5c-1.3,0.8-1.9,1.6-2.5,2.5c-0.6,1-1.6,3.2-1.7,3.4c-0.2,0.6-0.3,0.5-0.4,0.4
	c-0.6-0.5,0.1-2.5,0.7-4c0.4-0.8,0.8-1.9,1.4-2.8c0.2-0.4,0.1-0.2-0.1-0.1s-1.6,1-2.1,1.3c-0.6,0.2-1.3,0.5-1.7,0.5
	c-0.3,0-0.3,0.5-0.7,1.2c-0.8,1.5-2.1,2.7-3.2,2.7c-1,0-2-0.7-2.3-2c-0.2-1,0.4-1.8,0.8-2.7c0.2-0.4,0.1-0.3,0-0.3
	c-1.8,0.4-3.9,2.7-6.5,2.7c-0.4,0-0.4-0.1-0.2-0.2c0.8-0.2,3.2-1.2,4-3c0.2-0.5,0-1.2-0.5-1.2c-0.5,0.1-1.3,0.1-2.5,1.3
	c-0.8,1.2-1.5,2.6-1.8,3.9c-0.2,1-0.7,2.7-0.9,4.1c-0.1,0.6-0.2,2.6-0.2,2.8s-0.2,0.2-0.3,0c-0.4-0.9-0.5-1.5-0.6-2.7
	c0-0.3,0-1.8,0.2-2.6c0.3-1.3,0.2-2.1,0.2-2.1c0-0.1-0.1-0.1-0.2,0.1c-0.1,0.1-0.9,1.2-1.7,1.3c-0.3,0.1-0.7,0-1-0.4
	c-0.3-0.5-0.4-1.8-0.4-1.9c0-0.3-0.1-0.1-0.2-0.1c-0.1,0.2-0.5,0.7-0.6,0.9c-0.3,0.4-0.9,1.2-1.8,1.4c-0.2,0.1-1,0-1.5-0.9
	c-0.5-0.8-0.2-1.9,0.2-2.6c0.1-0.1,0.1-0.3-0.1-0.2c-0.3,0.2-1,0.7-1.6,1.2c-1,0.8-1.8,1.6-1.8,1.7c0,0.2,0.3,0.8,0.5,1.4
	c1.1,2.8,1.6,5.6-1,7.4c-0.8,0.5-1.7,0.8-2.8,0.6c-0.7-0.1-1.1-0.9-1.1-1.3c0-1,0.1-2,0.2-2.4c0.6-1.5,1.4-2.6,1.9-3.5
	c0.5-0.8,1-1.3,1.1-1.6c0-0.3-0.2-0.9-0.3-1.2c-0.4-1.2-0.4-2.1-0.4-2.4s-0.2-0.2-0.3,0c-0.2,0.4-0.6,1.3-1,2
	c-0.4,0.7-1.1,1.3-2.1,1.2c-0.7,0-0.9-0.8-0.9-1c0-0.5,0-1.3-0.1-1.4c0-0.4-0.2-0.7-0.5-0.7c-0.4,0-0.5,0.1-0.8,0.3
	c-0.4,0.4-0.8,1-1.2,1.7c-0.5,0.8-0.8,1.5-1,1.8c-0.3,0.6-0.3,1-0.7,1c-0.4,0-0.5-0.9-0.5-1.3c0-1.1,0.3-2,0.5-3
	c0.1-0.3,0.1-0.3,0-0.5c-0.2-0.1-0.2,0-0.4,0.2c-0.3,0.4-0.7,1.2-0.7,1.3c-0.4,0.8-0.8,1.5-1.5,1.9c-0.4,0.2-0.7,0.2-1.2,0.2
	c-0.2,0-0.4-0.3-0.6-0.5c-0.6-1.1-0.8-2.1-1-2.6c-0.1-0.3-0.3-0.3-0.4-0.2c-0.5,0.2-0.7,0.7-1.1,1c-0.7,0.4-1.6,0.6-2.5,0.4
	c-0.9-0.2-1.3-0.6-1.4-0.9c-0.1-0.3,0.2-0.1,0.2-0.1c0.8,0.5,1.2,0.5,1.4,0.5c0.4,0,1.4-0.2,2-0.9c0.3-0.4,0.8-1.6,1.4-2
	c0.6-0.4,1-0.5,1.4,0.2c0.2,0.3,0.2,0.6,0.2,0.8c0,0.2,0.2,0.6,0.2,0.8c0,0.7-0.1,1,0,1.5c0,0.5,0,0.8,0.4,1.2
	c0.2,0.3,0.4,0.1,0.7-0.1c0.4-0.1,1.1-1.1,1.8-2.5c0.2-0.4,0.7-1.3,1.3-2.4c0.1-0.2,0.3-0.4,0.4-0.5c0.2-0.1,0.5-0.1,0.6,0.1
	c0.3,0.3,0.5,0.7,0.4,1.2c0,0.2-0.1,1.1,0,1.6c0,0.2,0.1,0.2,0.2,0.1c0.4-0.4,1-1.1,1.2-1.4c0.2-0.2,0.7-0.5,1.1-0.6
	c0.4,0,0.7,0.1,1,0.4c0.6,0.6,0.4,1.3,0.7,2.4c0.1,0.2,0.2,0.2,0.3,0.2c0.2,0,0.6-0.2,0.9-0.6c0.4-0.5,0.7-1.1,0.8-1.4
	c0.2-0.5,0.5-1.1,0.6-1.2c0.1-0.1,0.4-1.5,0.7-1.9c0.4-0.7,0.8-1.2,1.5-1.3c1-0.2,1.7,0.3,2.1,0.7c0.3,0.4,0.3,1.3-0.1,2
	c-0.2,0.3-0.5,0.5-0.7,0.7c-0.2,0.2-0.3,0.3-0.5,0.5c-0.2,0.2-0.3,0-0.2-0.3c0.1-0.2,0.4-0.5,0.7-0.8c0.3-0.3,0.3-0.7,0.3-0.9
	c0-0.3,0.1-0.6-0.7-0.5c-0.4,0-1,0.3-1.6,1.5c-0.5,1-0.4,2.4-0.3,3.4c0.2,0.2,0.2,0.8,0.4,1.1c0,0.1,0.1,0.1,0.2,0
	c0.4-0.3,1.4-1.3,2-1.9c1.5-1.4,2.4-2.2,3.7-2.9c0.7-0.4,1.2-0.6,2-0.9c0.6-0.2,1.2-0.5,2.4-0.5c0.2,0,0.1,0.3,0,0.4
	c-0.1,0.1-0.4,0.3-0.4,0.6c0,0.2-0.1,0.5-0.5,0.5c-0.5,0-1.1-0.1-1.3,0c-0.8,0.3-2.2,0.9-2.8,1.5c-0.7,0.8-0.7,1.3-0.5,2
	c0.2,0.7,0.9,0.6,1.3,0.5c0.6-0.5,1.1-1.2,1.4-1.6l0.9-1.2c0.1-0.2,0.3-0.3,0.3-0.1c0.1,0.4,0.1,0.7,0.1,1.9c0,0.3,0.1,0.6,0.1,0.9
	c0,0.4,0.8,0.8,1.5,0.2c0.5-0.4,0.9-1.2,1.2-1.7C178.1,21.5,178.9,18.9,180.5,17.5z M145.5,13c0.2,0,0.4,0,0.8,0
	c0.2,0,0.5,0.4,0.5,0.5c0.1,1.5-1.2,2.6-1.6,3c-0.3,0.3-0.7,0.8-0.8,0.9c-0.3,0.5-0.4,0.2-0.3-0.2c0.1-0.3,0.3-0.5,0.6-0.9
	s0.8-1,0.9-1.3c0.2-0.5,0.3-0.7,0.4-1.1c-0.1-0.1-0.1-0.1-0.4-0.1c-0.3,0-0.5,0.1-1.5,1.2c-0.7,0.8-1.5,2.4-1.3,4.3
	c0.1,1.3,0.2,2.2,0.8,3.7c0.7,1.6,1.4,2.9,1.3,4.3c-0.1,1.9-1.8,3.3-2.5,3.6c-0.7,0.4-1.1,0.2-1.3,0c-0.4-0.3-0.8-0.6-0.9-1.3
	c-0.1-0.5,0.2-1.2,0.4-1.8c0.3-0.7,0.6-1.1,1-1.4c0.3-0.2,0.2,0.1,0.2,0.3c0,0.1-0.5,1.2-0.6,1.9c-0.1,0.7-0.1,0.6,0,1.1
	c0.3,0.1,0.7,0.1,0.9,0c0.3-0.2,0.9-1.1,1-1.7c0.2-1.2,0.1-1.7-0.1-2.7c-0.4-1.8-1.5-3.5-1.9-5c-0.3-1.1-0.1-2.2,0.2-3.2
	c0.2-0.7,0.5-1.2,1.3-2C143.3,14.2,144.2,13.2,145.5,13z"/>
</svg>
