<svg width="118" height="118" viewBox="0 0 118 118" fill="none" xmlns="http://www.w3.org/2000/svg">
<path d="M28.2 27.835L25.965 35H25.095L23.28 29.535C23.2633 29.4817 23.2467 29.425 23.23 29.365C23.2167 29.305 23.2017 29.2417 23.185 29.175C23.1683 29.2417 23.1517 29.305 23.135 29.365C23.1183 29.425 23.1017 29.4817 23.085 29.535L21.26 35H20.39L18.155 27.835H18.96C19.0467 27.835 19.1183 27.8567 19.175 27.9C19.235 27.9433 19.2733 27.9983 19.29 28.065L20.77 33.045C20.7933 33.135 20.815 33.2317 20.835 33.335C20.8583 33.4383 20.88 33.5483 20.9 33.665C20.9233 33.5483 20.9467 33.4383 20.97 33.335C20.9967 33.2283 21.025 33.1317 21.055 33.045L22.74 28.065C22.76 28.0083 22.7983 27.9567 22.855 27.91C22.915 27.86 22.9867 27.835 23.07 27.835H23.35C23.4367 27.835 23.5067 27.8567 23.56 27.9C23.6133 27.9433 23.6533 27.9983 23.68 28.065L25.36 33.045C25.39 33.1317 25.4167 33.225 25.44 33.325C25.4667 33.425 25.4917 33.53 25.515 33.64C25.5317 33.53 25.55 33.425 25.57 33.325C25.59 33.225 25.6117 33.1317 25.635 33.045L27.12 28.065C27.1367 28.005 27.1733 27.9517 27.23 27.905C27.29 27.8583 27.3617 27.835 27.445 27.835H28.2ZM29.9575 29.935V35H29.0675V29.935H29.9575ZM30.1475 28.345C30.1475 28.4317 30.1292 28.5133 30.0925 28.59C30.0592 28.6633 30.0125 28.73 29.9525 28.79C29.8958 28.8467 29.8275 28.8917 29.7475 28.925C29.6708 28.9583 29.5892 28.975 29.5025 28.975C29.4158 28.975 29.3342 28.9583 29.2575 28.925C29.1842 28.8917 29.1192 28.8467 29.0625 28.79C29.0058 28.73 28.9608 28.6633 28.9275 28.59C28.8942 28.5133 28.8775 28.4317 28.8775 28.345C28.8775 28.2583 28.8942 28.1767 28.9275 28.1C28.9608 28.02 29.0058 27.9517 29.0625 27.895C29.1192 27.835 29.1842 27.7883 29.2575 27.755C29.3342 27.7217 29.4158 27.705 29.5025 27.705C29.5892 27.705 29.6708 27.7217 29.7475 27.755C29.8275 27.7883 29.8958 27.835 29.9525 27.895C30.0125 27.9517 30.0592 28.02 30.0925 28.1C30.1292 28.1767 30.1475 28.2583 30.1475 28.345ZM32.9748 35.08C32.5748 35.08 32.2665 34.9683 32.0498 34.745C31.8365 34.5217 31.7298 34.2 31.7298 33.78V30.68H31.1198C31.0665 30.68 31.0215 30.665 30.9848 30.635C30.9482 30.6017 30.9298 30.5517 30.9298 30.485V30.13L31.7598 30.025L31.9648 28.46C31.9748 28.41 31.9965 28.37 32.0298 28.34C32.0665 28.3067 32.1132 28.29 32.1698 28.29H32.6198V30.035H34.0848V30.68H32.6198V33.72C32.6198 33.9333 32.6715 34.0917 32.7748 34.195C32.8782 34.2983 33.0115 34.35 33.1748 34.35C33.2682 34.35 33.3482 34.3383 33.4148 34.315C33.4848 34.2883 33.5448 34.26 33.5948 34.23C33.6448 34.2 33.6865 34.1733 33.7198 34.15C33.7565 34.1233 33.7882 34.11 33.8148 34.11C33.8615 34.11 33.9032 34.1383 33.9398 34.195L34.1998 34.62C34.0465 34.7633 33.8615 34.8767 33.6448 34.96C33.4282 35.04 33.2048 35.08 32.9748 35.08ZM35.8988 30.61C36.1155 30.38 36.3555 30.1967 36.6188 30.06C36.8822 29.9233 37.1855 29.855 37.5288 29.855C37.8055 29.855 38.0488 29.9017 38.2588 29.995C38.4722 30.085 38.6488 30.215 38.7888 30.385C38.9322 30.5517 39.0405 30.7533 39.1138 30.99C39.1872 31.2267 39.2238 31.4883 39.2238 31.775V35H38.3288V31.775C38.3288 31.3917 38.2405 31.095 38.0638 30.885C37.8905 30.6717 37.6255 30.565 37.2688 30.565C37.0055 30.565 36.7588 30.6283 36.5288 30.755C36.3022 30.8817 36.0922 31.0533 35.8988 31.27V35H35.0038V27.635H35.8988V30.61ZM46.0886 30.77C46.0486 30.8433 45.9869 30.88 45.9036 30.88C45.8536 30.88 45.7969 30.8617 45.7336 30.825C45.6703 30.7883 45.5919 30.7483 45.4986 30.705C45.4086 30.6583 45.3003 30.6167 45.1736 30.58C45.0469 30.54 44.8969 30.52 44.7236 30.52C44.5736 30.52 44.4386 30.54 44.3186 30.58C44.1986 30.6167 44.0953 30.6683 44.0086 30.735C43.9253 30.8017 43.8603 30.88 43.8136 30.97C43.7703 31.0567 43.7486 31.1517 43.7486 31.255C43.7486 31.385 43.7853 31.4933 43.8586 31.58C43.9353 31.6667 44.0353 31.7417 44.1586 31.805C44.2819 31.8683 44.4219 31.925 44.5786 31.975C44.7353 32.0217 44.8953 32.0733 45.0586 32.13C45.2253 32.1833 45.3869 32.2433 45.5436 32.31C45.7003 32.3767 45.8403 32.46 45.9636 32.56C46.0869 32.66 46.1853 32.7833 46.2586 32.93C46.3353 33.0733 46.3736 33.2467 46.3736 33.45C46.3736 33.6833 46.3319 33.9 46.2486 34.1C46.1653 34.2967 46.0419 34.4683 45.8786 34.615C45.7153 34.7583 45.5153 34.8717 45.2786 34.955C45.0419 35.0383 44.7686 35.08 44.4586 35.08C44.1053 35.08 43.7853 35.0233 43.4986 34.91C43.2119 34.7933 42.9686 34.645 42.7686 34.465L42.9786 34.125C43.0053 34.0817 43.0369 34.0483 43.0736 34.025C43.1103 34.0017 43.1569 33.99 43.2136 33.99C43.2736 33.99 43.3369 34.0133 43.4036 34.06C43.4703 34.1067 43.5503 34.1583 43.6436 34.215C43.7403 34.2717 43.8569 34.3233 43.9936 34.37C44.1303 34.4167 44.3003 34.44 44.5036 34.44C44.6769 34.44 44.8286 34.4183 44.9586 34.375C45.0886 34.3283 45.1969 34.2667 45.2836 34.19C45.3703 34.1133 45.4336 34.025 45.4736 33.925C45.5169 33.825 45.5386 33.7183 45.5386 33.605C45.5386 33.465 45.5003 33.35 45.4236 33.26C45.3503 33.1667 45.2519 33.0883 45.1286 33.025C45.0053 32.9583 44.8636 32.9017 44.7036 32.855C44.5469 32.805 44.3853 32.7533 44.2186 32.7C44.0553 32.6467 43.8936 32.5867 43.7336 32.52C43.5769 32.45 43.4369 32.3633 43.3136 32.26C43.1903 32.1567 43.0903 32.03 43.0136 31.88C42.9403 31.7267 42.9036 31.5417 42.9036 31.325C42.9036 31.1317 42.9436 30.9467 43.0236 30.77C43.1036 30.59 43.2203 30.4333 43.3736 30.3C43.5269 30.1633 43.7153 30.055 43.9386 29.975C44.1619 29.895 44.4169 29.855 44.7036 29.855C45.0369 29.855 45.3353 29.9083 45.5986 30.015C45.8653 30.1183 46.0953 30.2617 46.2886 30.445L46.0886 30.77ZM51.6298 29.935V35H51.0998C50.9731 35 50.8931 34.9383 50.8598 34.815L50.7898 34.27C50.5698 34.5133 50.3231 34.71 50.0498 34.86C49.7764 35.0067 49.4631 35.08 49.1098 35.08C48.8331 35.08 48.5881 35.035 48.3748 34.945C48.1648 34.8517 47.9881 34.7217 47.8448 34.555C47.7014 34.3883 47.5931 34.1867 47.5198 33.95C47.4498 33.7133 47.4148 33.4517 47.4148 33.165V29.935H48.3048V33.165C48.3048 33.5483 48.3914 33.845 48.5648 34.055C48.7414 34.265 49.0098 34.37 49.3698 34.37C49.6331 34.37 49.8781 34.3083 50.1048 34.185C50.3348 34.0583 50.5464 33.885 50.7398 33.665V29.935H51.6298ZM53.9359 33.78C54.0993 34 54.2776 34.155 54.4709 34.245C54.6643 34.335 54.8809 34.38 55.1209 34.38C55.5943 34.38 55.9576 34.2117 56.2109 33.875C56.4643 33.5383 56.5909 33.0583 56.5909 32.435C56.5909 32.105 56.5609 31.8217 56.5009 31.585C56.4443 31.3483 56.3609 31.155 56.2509 31.005C56.1409 30.8517 56.0059 30.74 55.8459 30.67C55.6859 30.6 55.5043 30.565 55.3009 30.565C55.0109 30.565 54.7559 30.6317 54.5359 30.765C54.3193 30.8983 54.1193 31.0867 53.9359 31.33V33.78ZM53.8909 30.72C54.1043 30.4567 54.3509 30.245 54.6309 30.085C54.9109 29.925 55.2309 29.845 55.5909 29.845C55.8843 29.845 56.1493 29.9017 56.3859 30.015C56.6226 30.125 56.8243 30.29 56.9909 30.51C57.1576 30.7267 57.2859 30.9967 57.3759 31.32C57.4659 31.6433 57.5109 32.015 57.5109 32.435C57.5109 32.8083 57.4609 33.1567 57.3609 33.48C57.2609 33.8 57.1159 34.0783 56.9259 34.315C56.7393 34.5483 56.5093 34.7333 56.2359 34.87C55.9659 35.0033 55.6609 35.07 55.3209 35.07C55.0109 35.07 54.7443 35.0183 54.5209 34.915C54.3009 34.8083 54.1059 34.6617 53.9359 34.475V36.715H53.0409V29.935H53.5759C53.7026 29.935 53.7809 29.9967 53.8109 30.12L53.8909 30.72ZM59.5414 33.78C59.7047 34 59.8831 34.155 60.0764 34.245C60.2697 34.335 60.4864 34.38 60.7264 34.38C61.1997 34.38 61.5631 34.2117 61.8164 33.875C62.0697 33.5383 62.1964 33.0583 62.1964 32.435C62.1964 32.105 62.1664 31.8217 62.1064 31.585C62.0497 31.3483 61.9664 31.155 61.8564 31.005C61.7464 30.8517 61.6114 30.74 61.4514 30.67C61.2914 30.6 61.1097 30.565 60.9064 30.565C60.6164 30.565 60.3614 30.6317 60.1414 30.765C59.9247 30.8983 59.7247 31.0867 59.5414 31.33V33.78ZM59.4964 30.72C59.7097 30.4567 59.9564 30.245 60.2364 30.085C60.5164 29.925 60.8364 29.845 61.1964 29.845C61.4897 29.845 61.7547 29.9017 61.9914 30.015C62.2281 30.125 62.4297 30.29 62.5964 30.51C62.7631 30.7267 62.8914 30.9967 62.9814 31.32C63.0714 31.6433 63.1164 32.015 63.1164 32.435C63.1164 32.8083 63.0664 33.1567 62.9664 33.48C62.8664 33.8 62.7214 34.0783 62.5314 34.315C62.3447 34.5483 62.1147 34.7333 61.8414 34.87C61.5714 35.0033 61.2664 35.07 60.9264 35.07C60.6164 35.07 60.3497 35.0183 60.1264 34.915C59.9064 34.8083 59.7114 34.6617 59.5414 34.475V36.715H58.6464V29.935H59.1814C59.3081 29.935 59.3864 29.9967 59.4164 30.12L59.4964 30.72ZM66.3869 29.855C66.7569 29.855 67.0902 29.9167 67.3869 30.04C67.6835 30.1633 67.9369 30.3383 68.1469 30.565C68.3569 30.7917 68.5169 31.0667 68.6269 31.39C68.7402 31.71 68.7969 32.0683 68.7969 32.465C68.7969 32.865 68.7402 33.225 68.6269 33.545C68.5169 33.865 68.3569 34.1383 68.1469 34.365C67.9369 34.5917 67.6835 34.7667 67.3869 34.89C67.0902 35.01 66.7569 35.07 66.3869 35.07C66.0135 35.07 65.6769 35.01 65.3769 34.89C65.0802 34.7667 64.8269 34.5917 64.6169 34.365C64.4069 34.1383 64.2452 33.865 64.1319 33.545C64.0219 33.225 63.9669 32.865 63.9669 32.465C63.9669 32.0683 64.0219 31.71 64.1319 31.39C64.2452 31.0667 64.4069 30.7917 64.6169 30.565C64.8269 30.3383 65.0802 30.1633 65.3769 30.04C65.6769 29.9167 66.0135 29.855 66.3869 29.855ZM66.3869 34.375C66.8869 34.375 67.2602 34.2083 67.5069 33.875C67.7535 33.5383 67.8769 33.07 67.8769 32.47C67.8769 31.8667 67.7535 31.3967 67.5069 31.06C67.2602 30.7233 66.8869 30.555 66.3869 30.555C66.1335 30.555 65.9119 30.5983 65.7219 30.685C65.5352 30.7717 65.3785 30.8967 65.2519 31.06C65.1285 31.2233 65.0352 31.425 64.9719 31.665C64.9119 31.9017 64.8819 32.17 64.8819 32.47C64.8819 33.07 65.0052 33.5383 65.2519 33.875C65.5019 34.2083 65.8802 34.375 66.3869 34.375ZM70.7707 30.95C70.9307 30.6033 71.1274 30.3333 71.3607 30.14C71.594 29.9433 71.879 29.845 72.2157 29.845C72.3224 29.845 72.424 29.8567 72.5207 29.88C72.6207 29.9033 72.709 29.94 72.7857 29.99L72.7207 30.655C72.7007 30.7383 72.6507 30.78 72.5707 30.78C72.524 30.78 72.4557 30.77 72.3657 30.75C72.2757 30.73 72.174 30.72 72.0607 30.72C71.9007 30.72 71.7574 30.7433 71.6307 30.79C71.5074 30.8367 71.3957 30.9067 71.2957 31C71.199 31.09 71.1107 31.2033 71.0307 31.34C70.954 31.4733 70.884 31.6267 70.8207 31.8V35H69.9257V29.935H70.4357C70.5324 29.935 70.599 29.9533 70.6357 29.99C70.6724 30.0267 70.6974 30.09 70.7107 30.18L70.7707 30.95ZM75.1233 35.08C74.7233 35.08 74.4149 34.9683 74.1983 34.745C73.9849 34.5217 73.8783 34.2 73.8783 33.78V30.68H73.2683C73.2149 30.68 73.1699 30.665 73.1333 30.635C73.0966 30.6017 73.0783 30.5517 73.0783 30.485V30.13L73.9083 30.025L74.1133 28.46C74.1233 28.41 74.1449 28.37 74.1783 28.34C74.2149 28.3067 74.2616 28.29 74.3183 28.29H74.7683V30.035H76.2333V30.68H74.7683V33.72C74.7683 33.9333 74.8199 34.0917 74.9233 34.195C75.0266 34.2983 75.1599 34.35 75.3233 34.35C75.4166 34.35 75.4966 34.3383 75.5633 34.315C75.6333 34.2883 75.6933 34.26 75.7433 34.23C75.7933 34.2 75.8349 34.1733 75.8683 34.15C75.9049 34.1233 75.9366 34.11 75.9633 34.11C76.0099 34.11 76.0516 34.1383 76.0883 34.195L76.3483 34.62C76.1949 34.7633 76.0099 34.8767 75.7933 34.96C75.5766 35.04 75.3533 35.08 75.1233 35.08ZM80.0409 35V30.695L79.4809 30.63C79.4109 30.6133 79.3525 30.5883 79.3059 30.555C79.2625 30.5183 79.2409 30.4667 79.2409 30.4V30.035H80.0409V29.545C80.0409 29.255 80.0809 28.9983 80.1609 28.775C80.2442 28.5483 80.3609 28.3583 80.5109 28.205C80.6642 28.0483 80.8475 27.93 81.0609 27.85C81.2742 27.77 81.5142 27.73 81.7809 27.73C82.0075 27.73 82.2159 27.7633 82.4059 27.83L82.3859 28.275C82.3792 28.355 82.3342 28.3983 82.2509 28.405C82.1709 28.4117 82.0625 28.415 81.9259 28.415C81.7725 28.415 81.6325 28.435 81.5059 28.475C81.3825 28.515 81.2759 28.58 81.1859 28.67C81.0959 28.76 81.0259 28.8783 80.9759 29.025C80.9292 29.1717 80.9059 29.3533 80.9059 29.57V30.035H82.3659V30.68H80.9359V35H80.0409ZM84.0617 30.95C84.2217 30.6033 84.4184 30.3333 84.6517 30.14C84.8851 29.9433 85.1701 29.845 85.5067 29.845C85.6134 29.845 85.7151 29.8567 85.8117 29.88C85.9117 29.9033 86.0001 29.94 86.0767 29.99L86.0117 30.655C85.9917 30.7383 85.9417 30.78 85.8617 30.78C85.8151 30.78 85.7467 30.77 85.6567 30.75C85.5667 30.73 85.4651 30.72 85.3517 30.72C85.1917 30.72 85.0484 30.7433 84.9217 30.79C84.7984 30.8367 84.6867 30.9067 84.5867 31C84.4901 31.09 84.4017 31.2033 84.3217 31.34C84.2451 31.4733 84.1751 31.6267 84.1117 31.8V35H83.2167V29.935H83.7267C83.8234 29.935 83.8901 29.9533 83.9267 29.99C83.9634 30.0267 83.9884 30.09 84.0017 30.18L84.0617 30.95ZM88.7892 29.855C89.1592 29.855 89.4926 29.9167 89.7892 30.04C90.0859 30.1633 90.3392 30.3383 90.5492 30.565C90.7592 30.7917 90.9192 31.0667 91.0292 31.39C91.1426 31.71 91.1992 32.0683 91.1992 32.465C91.1992 32.865 91.1426 33.225 91.0292 33.545C90.9192 33.865 90.7592 34.1383 90.5492 34.365C90.3392 34.5917 90.0859 34.7667 89.7892 34.89C89.4926 35.01 89.1592 35.07 88.7892 35.07C88.4159 35.07 88.0792 35.01 87.7792 34.89C87.4826 34.7667 87.2292 34.5917 87.0192 34.365C86.8092 34.1383 86.6476 33.865 86.5342 33.545C86.4242 33.225 86.3692 32.865 86.3692 32.465C86.3692 32.0683 86.4242 31.71 86.5342 31.39C86.6476 31.0667 86.8092 30.7917 87.0192 30.565C87.2292 30.3383 87.4826 30.1633 87.7792 30.04C88.0792 29.9167 88.4159 29.855 88.7892 29.855ZM88.7892 34.375C89.2892 34.375 89.6626 34.2083 89.9092 33.875C90.1559 33.5383 90.2792 33.07 90.2792 32.47C90.2792 31.8667 90.1559 31.3967 89.9092 31.06C89.6626 30.7233 89.2892 30.555 88.7892 30.555C88.5359 30.555 88.3142 30.5983 88.1242 30.685C87.9376 30.7717 87.7809 30.8967 87.6542 31.06C87.5309 31.2233 87.4376 31.425 87.3742 31.665C87.3142 31.9017 87.2842 32.17 87.2842 32.47C87.2842 33.07 87.4076 33.5383 87.6542 33.875C87.9042 34.2083 88.2826 34.375 88.7892 34.375ZM92.328 35V29.935H92.863C92.9897 29.935 93.068 29.9967 93.098 30.12L93.163 30.64C93.3497 30.41 93.5597 30.2217 93.793 30.075C94.0264 29.9283 94.2964 29.855 94.603 29.855C94.943 29.855 95.218 29.95 95.428 30.14C95.6414 30.33 95.7947 30.5867 95.888 30.91C95.9614 30.7267 96.0547 30.5683 96.168 30.435C96.2847 30.3017 96.4147 30.1917 96.558 30.105C96.7014 30.0183 96.853 29.955 97.013 29.915C97.1764 29.875 97.3414 29.855 97.508 29.855C97.7747 29.855 98.0114 29.8983 98.218 29.985C98.428 30.0683 98.6047 30.1917 98.748 30.355C98.8947 30.5183 99.0064 30.72 99.083 30.96C99.1597 31.1967 99.198 31.4683 99.198 31.775V35H98.303V31.775C98.303 31.3783 98.2164 31.0783 98.043 30.875C97.8697 30.6683 97.6197 30.565 97.293 30.565C97.1464 30.565 97.0064 30.5917 96.873 30.645C96.743 30.695 96.628 30.77 96.528 30.87C96.428 30.97 96.348 31.0967 96.288 31.25C96.2314 31.4 96.203 31.575 96.203 31.775V35H95.308V31.775C95.308 31.3683 95.2264 31.065 95.063 30.865C94.8997 30.665 94.6614 30.565 94.348 30.565C94.128 30.565 93.9247 30.625 93.738 30.745C93.5514 30.8617 93.3797 31.0217 93.223 31.225V35H92.328Z" fill="#7F7F7F"/>
<g clip-path="url(#clip0_25_40)">
<path d="M84 50.2088C84 47.7575 83.01 45.505 81.294 43.7163C79.578 41.9938 77.202 41 74.826 41C70.8 41 65.058 43.3188 51 43.3188C36.942 43.3188 30.87 41 27.174 41C24.732 41 22.422 41.9275 20.706 43.7163C18.924 45.4388 18 47.7575 18 50.2088C18 52.3288 19.98 59.7488 19.98 66.8375C19.98 73.9263 18 81.4125 18 83.4663C18 85.9175 18.924 88.2363 20.706 89.9588C22.422 91.6813 24.732 92.675 27.174 92.675C30.87 92.675 36.876 90.3563 51 90.3563C65.124 90.3563 70.8 92.675 74.826 92.675C79.908 92.675 84 88.5675 84 83.4663C84 81.3463 82.02 74.0588 82.02 66.8375C82.02 59.6163 84 52.3288 84 50.2088Z" fill="white"/>
<path d="M51 87.7725C60.306 87.7725 70.8 90.7538 74.826 90.7538C78.852 90.7538 82.086 87.5075 82.086 83.4663C82.086 79.425 79.38 71.74 79.38 66.8375C79.38 61.935 82.086 54.25 82.086 50.2088C82.086 46.1675 78.72 42.9213 74.826 42.9213C70.932 42.9213 60.306 45.9025 51 45.9025C41.694 45.9025 31.2 42.9213 27.174 42.9213C23.148 42.9213 19.914 46.1675 19.914 50.2088C19.914 54.1838 22.62 61.8688 22.62 66.8375C22.62 71.8063 19.914 79.4913 19.914 83.4663C19.914 87.4413 23.148 90.7538 27.174 90.7538C31.2 90.7538 41.694 87.7725 51 87.7725Z" fill="#11817A"/>
<path d="M32.454 67.1025C32.454 67.1025 31.728 67.0362 31.134 67.0362V71.6075C31.134 71.8062 31.2 71.8725 31.332 71.9387H30.144C30.276 71.8725 30.342 71.74 30.342 71.6075V67.0362C29.748 67.0362 29.022 67.1025 29.022 67.1025C28.824 67.1025 28.692 67.3012 28.626 67.4337V66.7712H32.784V67.4337C32.784 67.3012 32.652 67.1025 32.454 67.1025Z" fill="white"/>
<path d="M37.404 66.97C36.216 66.97 35.358 67.8312 35.358 69.2225C35.358 70.8787 36.48 71.6737 37.404 71.6737C38.592 71.6737 39.384 70.8125 39.384 69.4212C39.45 67.9637 38.592 66.97 37.404 66.97ZM40.308 69.4212C40.242 71.21 38.658 72.0712 37.338 72.0712C35.82 72.0712 34.434 70.8787 34.5 69.2887C34.566 68.03 35.622 66.6387 37.536 66.705C38.856 66.705 40.374 67.6325 40.308 69.4212Z" fill="white"/>
<path d="M43.938 66.705C43.806 66.7713 43.674 66.9038 43.674 67.0363V70.2825C43.674 70.8125 43.872 71.6075 44.994 71.6075C46.05 71.6075 46.38 70.945 46.38 70.2825V67.0363C46.38 66.8375 46.314 66.7713 46.182 66.705H47.04C46.908 66.7713 46.842 66.9038 46.842 67.0363V70.2825C46.842 71.5413 45.984 72.005 44.994 72.005C44.136 72.005 43.014 71.6075 43.014 70.2825V67.0363C43.014 66.8375 42.882 66.7713 42.75 66.705H43.938Z" fill="white"/>
<path d="M51.132 67.0362C50.802 67.0362 50.538 67.0362 50.538 67.0362V69.1562C50.538 69.1562 50.802 69.1562 51 69.1562C51.594 69.1562 52.188 68.825 52.188 68.03C52.188 67.6987 51.99 67.0362 51.132 67.0362ZM52.98 68.03C52.98 68.8912 52.188 69.2887 51.726 69.355C52.122 69.4212 52.386 69.7525 52.518 69.9512C52.518 69.9512 53.376 71.3425 53.706 71.74C53.904 71.9387 54.234 72.0712 54.234 72.0712H53.442C53.112 72.0712 52.914 71.8725 52.782 71.74C52.386 71.1437 52.122 70.68 51.792 70.2825C51.594 69.9512 51.396 69.62 51 69.62C50.868 69.62 50.538 69.62 50.538 69.62V71.74C50.538 71.9387 50.67 72.005 50.736 72.0712H49.548C49.68 72.005 49.746 71.8725 49.746 71.74V67.1687C49.746 66.97 49.68 66.9037 49.548 66.8375H51.066C52.65 66.705 52.98 67.5662 52.98 68.03Z" fill="white"/>
<path d="M57.6 66.705C57.468 66.7713 57.402 66.9038 57.402 67.0363V71.6075C57.402 71.8063 57.468 71.8725 57.6 71.9388H56.412C56.544 71.8725 56.61 71.74 56.61 71.6075V67.0363C56.61 66.8375 56.544 66.7713 56.412 66.705H57.6Z" fill="white"/>
<path d="M62.418 68.825C63.144 69.2225 63.936 69.4212 63.936 70.4812C63.936 71.475 63.012 72.0712 62.22 72.0712C61.56 72.0712 61.032 71.8062 60.768 71.6075V70.4812C60.966 71.0112 61.362 71.74 62.22 71.74C63.078 71.74 63.276 71.0775 63.276 70.68C63.276 69.9512 62.682 69.8187 61.956 69.4212C61.164 69.0237 60.834 68.6262 60.834 68.03C60.834 67.1025 61.692 66.6387 62.484 66.6387C62.748 66.6387 63.276 66.705 63.606 66.9037L63.672 67.8975C63.606 67.5 63.144 66.9037 62.418 66.9037C61.758 66.9037 61.56 67.3675 61.56 67.6987C61.362 68.295 61.692 68.4937 62.418 68.825Z" fill="white"/>
<path d="M69.81 70.68L71.526 66.705H72.516C72.384 66.7713 72.318 66.9038 72.318 67.0363V71.6075C72.318 71.8063 72.384 71.8725 72.516 71.9388H71.328C71.46 71.8725 71.526 71.74 71.526 71.6075V67.6325C71.526 67.5663 71.526 67.5 71.526 67.5L71.46 67.6988L69.48 72.1375L67.566 67.8313L67.5 67.6325C67.5 67.6325 67.5 67.765 67.5 67.8313V71.6738C67.5 71.8725 67.566 71.9388 67.698 72.005H66.906C67.038 71.9388 67.104 71.8063 67.104 71.6738V67.1025C67.104 66.97 66.972 66.8375 66.84 66.7713H67.896L69.81 70.68Z" fill="white"/>
<path d="M37.338 78.4312C37.338 79.5575 36.216 79.6237 35.688 79.6237C35.49 79.6237 35.292 79.6237 35.292 79.6237C35.292 78.6962 35.292 77.3712 35.292 77.3712C35.292 77.3712 35.688 77.3712 35.952 77.3712C36.612 77.3712 37.338 77.57 37.338 78.4312ZM35.886 74.7213H34.368C34.5 74.7875 34.566 74.92 34.566 75.0525V79.6237C34.566 79.8225 34.5 79.8887 34.368 79.955H36.084C37.8 79.955 38.196 79.0937 38.196 78.4975C38.196 77.2387 36.612 77.1062 36.612 77.1062C36.612 77.1062 37.668 76.775 37.668 75.9138C37.668 74.92 36.414 74.7213 35.886 74.7213ZM36.942 75.98C36.942 76.9737 36.018 77.04 35.688 77.04C35.49 77.04 35.358 77.04 35.358 77.04C35.358 76.4438 35.358 75.1188 35.358 75.1188C35.358 75.1188 35.556 75.1188 35.886 75.1188C36.348 75.0525 36.942 75.3175 36.942 75.98Z" fill="white"/>
<path d="M43.278 74.9863C42.09 74.9863 41.232 75.8475 41.232 77.2388C41.232 78.895 42.354 79.69 43.278 79.69C44.466 79.69 45.258 78.8288 45.258 77.4375C45.324 75.98 44.466 74.9863 43.278 74.9863ZM46.182 77.4375C46.116 79.2263 44.532 80.0875 43.212 80.0875C41.694 80.0875 40.308 78.895 40.374 77.305C40.44 76.0463 41.496 74.655 43.41 74.7213C44.73 74.7213 46.248 75.6488 46.182 77.4375Z" fill="white"/>
<path d="M49.218 78.1H51C50.604 77.1063 50.076 75.9138 50.076 75.9138C50.076 75.9138 49.548 77.2388 49.218 78.1ZM50.34 74.655C50.34 74.655 52.386 79.3588 52.518 79.6238C52.584 79.7563 52.65 79.8888 52.914 80.0213H51.462C51.66 79.955 51.726 79.8225 51.66 79.6238C51.594 79.5575 51.396 79.0275 51.132 78.4313H49.086C48.822 79.0275 48.624 79.4913 48.558 79.6238C48.492 79.8225 48.492 79.955 48.756 80.0213H47.766C47.964 79.8888 48.03 79.8225 48.162 79.6238C48.294 79.2925 50.34 74.655 50.34 74.655Z" fill="white"/>
<path d="M56.94 75.0525C56.61 75.0525 56.346 75.0525 56.346 75.0525V77.1725C56.346 77.1725 56.61 77.1725 56.808 77.1725C57.402 77.1725 57.996 76.8412 57.996 76.0462C57.996 75.715 57.798 75.0525 56.94 75.0525ZM58.854 76.0462C58.854 76.9075 58.062 77.305 57.6 77.3712C57.996 77.4375 58.26 77.7687 58.392 77.9675C58.392 77.9675 59.25 79.3587 59.58 79.7562C59.778 79.955 60.108 80.0875 60.108 80.0875H59.316C58.986 80.0875 58.788 79.8887 58.656 79.7562C58.26 79.16 57.996 78.6962 57.666 78.2987C57.468 77.9675 57.27 77.6362 56.874 77.6362C56.742 77.6362 56.412 77.6362 56.412 77.6362V79.7562C56.412 79.955 56.544 80.0212 56.61 80.0875H55.422C55.554 80.0212 55.62 79.8887 55.62 79.7562V75.185C55.62 74.9862 55.554 74.92 55.422 74.8537H56.94C58.458 74.7212 58.854 75.5825 58.854 76.0462Z" fill="white"/>
<path d="M62.418 74.7213C62.55 74.7875 62.616 74.92 62.616 75.0525V79.6237C62.616 79.8225 62.55 79.8887 62.418 79.955H64.266C66.51 79.955 67.434 78.4975 67.434 77.2387C67.434 76.5762 67.038 74.7213 64.398 74.7213H62.418ZM66.576 77.305C66.576 78.4312 66.048 79.69 64.266 79.69C64.002 79.69 63.672 79.69 63.342 79.69V75.1188C63.54 75.1188 64.068 75.1188 64.332 75.1188C66.048 75.0525 66.576 76.3112 66.576 77.305Z" fill="white"/>
<path d="M44.928 59.2187C44.202 60.2787 43.938 60.8087 43.542 61.6037C43.344 62.0012 42.948 63.0612 43.212 63.9225C43.674 64.055 44.334 63.79 44.928 62.9287C45.39 62.1337 45.324 60.61 44.928 59.2187ZM70.8 54.9125C70.47 55.1775 70.074 55.6412 69.942 56.1712C69.876 56.4362 69.81 56.8337 69.876 57.2312C70.668 56.8337 71.394 56.2375 71.592 55.3762C71.658 55.1775 71.658 54.8462 71.328 54.8462C71.064 54.8462 70.932 54.8462 70.8 54.9125ZM70.602 54.25C71.196 53.9187 71.922 53.985 72.186 54.1837C72.714 54.6475 72.846 54.78 72.78 55.7075C72.714 56.105 71.922 57.2312 69.942 57.8275C69.942 58.1587 70.272 58.49 70.734 58.5562C71.79 58.6887 72.978 58.1587 73.176 58.0925C73.374 58.0262 73.308 58.1587 73.242 58.225C72.45 58.9537 71.328 59.2187 70.47 59.0862C69.216 58.8875 69.084 58.49 68.82 58.0925C68.82 58.0925 68.754 58.0262 68.622 58.0262C68.49 58.0262 68.094 58.0262 67.962 57.96C67.434 57.8937 67.236 57.6287 67.17 57.43C67.17 57.3637 67.104 57.2312 67.302 57.3637C67.566 57.5625 67.764 57.6287 67.962 57.6287C68.226 57.695 68.49 57.6287 68.622 57.5625C68.556 57.0325 68.556 56.4362 68.754 56.0387C68.952 55.575 69.48 54.8462 70.602 54.25ZM36.15 52.66C36.216 52.66 36.282 52.66 36.414 52.66C36.546 52.66 36.612 52.7925 36.678 52.8587C36.744 52.925 36.744 53.1237 36.678 53.2562C36.612 53.3887 36.546 53.5212 36.414 53.5875C36.216 53.72 35.952 53.985 35.952 54.0512C35.886 54.1175 35.886 54.25 35.754 54.1837C35.556 54.1837 35.556 53.985 35.424 53.8525C35.292 53.7862 35.358 53.6537 35.424 53.5212C35.49 53.3225 36.018 52.7262 36.15 52.66ZM55.422 52.5937C55.554 52.4612 55.29 53.1237 55.488 53.7862C55.488 53.8525 55.356 53.985 55.356 53.985C54.894 54.515 54.564 55.045 54.366 55.7737C54.3 55.9725 54.3 56.0387 54.432 55.9062C54.564 55.7075 54.828 55.4425 55.026 55.2437C56.28 53.8525 57.072 53.5875 57.6 53.985C58.326 54.5812 57.798 55.6412 57.6 56.105C57.534 56.1712 57.6 56.1712 57.732 56.105C57.864 56.0387 58.722 55.575 59.25 55.1775C59.712 54.8462 60.306 54.4487 60.504 54.25C60.702 54.0512 60.702 54.5812 60.636 54.8462C60.57 55.1775 60.57 55.31 60.438 55.3762C60.108 55.7075 59.382 56.3037 59.25 56.8337C59.118 57.695 59.514 57.8937 59.844 57.8937C60.57 57.96 61.296 57.0987 61.362 56.5025C61.362 56.4362 61.23 56.37 61.032 56.2375C60.57 55.9062 60.504 55.4425 60.834 55.045C60.966 54.9125 61.362 54.5812 61.692 54.9125C61.956 55.1112 62.22 55.3762 62.22 55.575C62.22 55.7737 62.22 56.105 62.352 56.105C62.88 56.105 63.87 55.7075 64.332 55.4425C65.322 54.9125 66.048 54.4487 66.51 54.1837C66.774 54.0512 66.708 54.25 66.642 54.3825C66.576 54.6475 66.378 54.78 66.246 54.9787C66.18 55.045 66.114 55.2437 66.312 55.1112C66.906 54.9125 68.028 54.3825 68.754 54.3825C69.084 54.3825 69.018 54.4487 68.886 54.515C68.556 54.6475 68.424 55.31 68.16 55.4425C67.896 55.575 67.698 55.5087 67.434 55.5087C67.104 55.575 66.642 55.7075 66.378 55.84C65.52 56.37 65.124 56.9 64.728 57.4962C64.332 58.1587 63.672 59.6162 63.606 59.7487C63.474 60.1462 63.408 60.08 63.342 60.0137C62.946 59.6825 63.408 58.3575 63.804 57.3637C64.068 56.8337 64.332 56.105 64.728 55.5087C64.86 55.2437 64.794 55.3762 64.662 55.4425C64.53 55.5087 63.606 56.105 63.276 56.3037C62.88 56.4362 62.418 56.635 62.154 56.635C61.956 56.635 61.956 56.9662 61.692 57.43C61.164 58.4237 60.306 59.2187 59.58 59.2187C58.92 59.2187 58.26 58.755 58.062 57.8937C57.93 57.2312 58.326 56.7012 58.59 56.105C58.722 55.84 58.656 55.9062 58.59 55.9062C57.402 56.1712 56.016 57.695 54.3 57.695C54.036 57.695 54.036 57.6287 54.168 57.5625C54.696 57.43 56.28 56.7675 56.808 55.575C56.94 55.2437 56.808 54.78 56.478 54.78C56.148 54.8462 55.62 54.8462 54.828 55.6412C54.3 56.4362 53.838 57.3637 53.64 58.225C53.508 58.8875 53.178 60.0137 53.046 60.9412C52.98 61.3387 52.914 62.6637 52.914 62.7962C52.914 62.9287 52.782 62.9287 52.716 62.7962C52.452 62.2 52.386 61.8025 52.32 61.0075C52.32 60.8087 52.32 59.815 52.452 59.285C52.65 58.4237 52.584 57.8937 52.584 57.8937C52.584 57.8275 52.518 57.8275 52.452 57.96C52.386 58.0262 51.858 58.755 51.33 58.8212C51.132 58.8875 50.868 58.8212 50.67 58.5562C50.472 58.225 50.406 57.3637 50.406 57.2975C50.406 57.0987 50.34 57.2312 50.274 57.2312C50.208 57.3637 49.944 57.695 49.878 57.8275C49.68 58.0925 49.284 58.6225 48.69 58.755C48.558 58.8212 48.03 58.755 47.7 58.1587C47.37 57.6287 47.568 56.9 47.832 56.4362C47.898 56.37 47.898 56.2375 47.766 56.3037C47.568 56.4362 47.106 56.7675 46.71 57.0987C46.05 57.6287 45.522 58.1587 45.522 58.225C45.522 58.3575 45.72 58.755 45.852 59.1525C46.578 61.0075 46.908 62.8625 45.192 64.055C44.664 64.3862 44.07 64.585 43.344 64.4525C42.882 64.3862 42.618 63.8562 42.618 63.5912C42.618 62.9287 42.684 62.2662 42.75 62.0012C43.146 61.0075 43.674 60.2787 44.004 59.6825C44.334 59.1525 44.664 58.8212 44.73 58.6225C44.73 58.4237 44.598 58.0262 44.532 57.8275C44.268 57.0325 44.268 56.4362 44.268 56.2375C44.268 56.0387 44.136 56.105 44.07 56.2375C43.938 56.5025 43.674 57.0987 43.41 57.5625C43.146 58.0262 42.684 58.4237 42.024 58.3575C41.562 58.3575 41.43 57.8275 41.43 57.695C41.43 57.3637 41.43 56.8337 41.364 56.7675C41.364 56.5025 41.232 56.3037 41.034 56.3037C40.77 56.3037 40.704 56.37 40.506 56.5025C40.242 56.7675 39.978 57.165 39.714 57.6287C39.384 58.1587 39.186 58.6225 39.054 58.8212C38.856 59.2187 38.856 59.4837 38.592 59.4837C38.328 59.4837 38.262 58.8875 38.262 58.6225C38.262 57.8937 38.46 57.2975 38.592 56.635C38.658 56.4362 38.658 56.4362 38.592 56.3037C38.46 56.2375 38.46 56.3037 38.328 56.4362C38.13 56.7012 37.866 57.2312 37.866 57.2975C37.602 57.8275 37.338 58.2912 36.876 58.5562C36.612 58.6887 36.414 58.6887 36.084 58.6887C35.952 58.6887 35.82 58.49 35.688 58.3575C35.292 57.6287 35.16 56.9662 35.028 56.635C34.962 56.4362 34.83 56.4362 34.764 56.5025C34.434 56.635 34.302 56.9662 34.038 57.165C33.576 57.43 32.982 57.5625 32.388 57.43C31.794 57.2975 31.53 57.0325 31.464 56.8337C31.398 56.635 31.596 56.7675 31.596 56.7675C32.124 57.0987 32.388 57.0987 32.52 57.0987C32.784 57.0987 33.444 56.9662 33.84 56.5025C34.038 56.2375 34.368 55.4425 34.764 55.1775C35.16 54.9125 35.424 54.8462 35.688 55.31C35.82 55.5087 35.82 55.7075 35.82 55.84C35.82 55.9725 35.952 56.2375 35.952 56.37C35.952 56.8337 35.886 57.0325 35.952 57.3637C35.952 57.695 35.952 57.8937 36.216 58.1587C36.348 58.3575 36.48 58.225 36.678 58.0925C36.942 58.0262 37.404 57.3637 37.866 56.4362C37.998 56.1712 38.328 55.575 38.724 54.8462C38.79 54.7137 38.922 54.5812 38.988 54.515C39.12 54.4487 39.318 54.4487 39.384 54.5812C39.582 54.78 39.714 55.045 39.648 55.3762C39.648 55.5087 39.582 56.105 39.648 56.4362C39.648 56.5687 39.714 56.5687 39.78 56.5025C40.044 56.2375 40.44 55.7737 40.572 55.575C40.704 55.4425 41.034 55.2437 41.298 55.1775C41.562 55.1775 41.76 55.2437 41.958 55.4425C42.354 55.84 42.222 56.3037 42.42 57.0325C42.486 57.165 42.552 57.165 42.618 57.165C42.75 57.165 43.014 57.0325 43.212 56.7675C43.476 56.4362 43.674 56.0387 43.74 55.84C43.872 55.5087 44.07 55.1112 44.136 55.045C44.202 54.9787 44.4 54.0512 44.598 53.7862C44.862 53.3225 45.126 52.9912 45.588 52.925C46.248 52.7925 46.71 53.1237 46.974 53.3887C47.172 53.6537 47.172 54.25 46.908 54.7137C46.776 54.9125 46.578 55.045 46.446 55.1775C46.314 55.31 46.248 55.3762 46.116 55.5087C45.984 55.6412 45.918 55.5087 45.984 55.31C46.05 55.1775 46.248 54.9787 46.446 54.78C46.644 54.5812 46.644 54.3162 46.644 54.1837C46.644 53.985 46.71 53.7862 46.182 53.8525C45.918 53.8525 45.522 54.0512 45.126 54.8462C44.796 55.5087 44.862 56.4362 44.928 57.0987C45.06 57.2312 45.06 57.6287 45.192 57.8275C45.192 57.8937 45.258 57.8937 45.324 57.8275C45.588 57.6287 46.248 56.9662 46.644 56.5687C47.634 55.6412 48.228 55.1112 49.086 54.6475C49.548 54.3825 49.878 54.25 50.406 54.0512C50.802 53.9187 51.198 53.72 51.99 53.72C52.122 53.72 52.056 53.9187 51.99 53.985C51.924 54.0512 51.726 54.1837 51.726 54.3825C51.726 54.515 51.66 54.7137 51.396 54.7137C51.066 54.7137 50.67 54.6475 50.538 54.7137C50.01 54.9125 49.086 55.31 48.69 55.7075C48.228 56.2375 48.228 56.5687 48.36 57.0325C48.492 57.4962 48.954 57.43 49.218 57.3637C49.614 57.0325 49.944 56.5687 50.142 56.3037L50.736 55.5087C50.802 55.3762 50.934 55.31 50.934 55.4425C51 55.7075 51 55.9062 51 56.7012C51 56.9 51.066 57.0987 51.066 57.2975C51.066 57.5625 51.594 57.8275 52.056 57.43C52.386 57.165 52.65 56.635 52.848 56.3037C53.838 55.2437 54.366 53.5212 55.422 52.5937ZM32.322 49.6125C32.454 49.6125 32.586 49.6125 32.85 49.6125C32.982 49.6125 33.18 49.8775 33.18 49.9437C33.246 50.9375 32.388 51.6662 32.124 51.9312C31.926 52.13 31.662 52.4612 31.596 52.5275C31.398 52.8587 31.332 52.66 31.398 52.395C31.464 52.1962 31.596 52.0637 31.794 51.7987C31.992 51.5337 32.322 51.1362 32.388 50.9375C32.52 50.6062 32.586 50.4737 32.652 50.2087C32.586 50.1425 32.586 50.1425 32.388 50.1425C32.19 50.1425 32.058 50.2087 31.398 50.9375C30.936 51.4675 30.408 52.5275 30.54 53.7862C30.606 54.6475 30.672 55.2437 31.068 56.2375C31.53 57.2975 31.992 58.1587 31.926 59.0862C31.86 60.345 30.738 61.2725 30.276 61.4712C29.814 61.7362 29.55 61.6037 29.418 61.4712C29.154 61.2725 28.89 61.0737 28.824 60.61C28.758 60.2787 28.956 59.815 29.088 59.4175C29.286 58.9537 29.484 58.6887 29.748 58.49C29.946 58.3575 29.88 58.5562 29.88 58.6887C29.88 58.755 29.55 59.4837 29.484 59.9475C29.418 60.4112 29.418 60.345 29.484 60.6762C29.682 60.7425 29.946 60.7425 30.078 60.6762C30.276 60.5437 30.672 59.9475 30.738 59.55C30.87 58.755 30.804 58.4237 30.672 57.7612C30.408 56.5687 29.682 55.4425 29.418 54.4487C29.22 53.72 29.352 52.9912 29.55 52.3287C29.682 51.865 29.88 51.5337 30.408 51.0037C30.87 50.4075 31.464 49.745 32.322 49.6125Z" fill="white"/>
</g>
<defs>
<clipPath id="clip0_25_40">
<rect width="66" height="53" fill="white" transform="translate(18 41)"/>
</clipPath>
</defs>
</svg>
